<svg xmlns="http://www.w3.org/2000/svg" viewBox="0 0 71.59 100.41"><defs><style>.cls-1{fill:none;stroke:#210049;stroke-linecap:round;stroke-linejoin:round;stroke-width:2px;}</style></defs><title>Recurso 5</title><g id="Capa_2" data-name="Capa 2"><g id="Layer_1" data-name="Layer 1"><path class="cls-1" d="M18.21,99.41,12.72,80.23,18.3,63.47,21.73,68a.6.6,0,0,0,.56.24l6.59-.93,0,.07-10.64,32"/><path class="cls-1" d="M53.37,99.41l-10.64-32,0-.08,6.59.93a.6.6,0,0,0,.56-.24l3.43-4.58,5.58,16.77L53.37,99.41"/><path class="cls-1" d="M67,42a.61.61,0,0,0-.08.4l1,6.94-5.58,4.21a.6.6,0,0,0-.22.34l-1.74,6.79-6.76,1.76a.61.61,0,0,0-.33.22l-4.19,5.6-6.91-1a.59.59,0,0,0-.39.08l-6,3.56-6-3.56a.6.6,0,0,0-.39-.08l-6.91,1-4.19-5.6a.6.6,0,0,0-.33-.22L11.2,60.65,9.45,53.86a.61.61,0,0,0-.22-.34L3.65,49.32l1-6.94a.61.61,0,0,0-.08-.4L1,35.94l3.55-6a.61.61,0,0,0,.08-.4l-1-6.94,5.58-4.22A.6.6,0,0,0,9.45,18l1.74-6.79L18,9.48a.61.61,0,0,0,.33-.22l4.19-5.6,6.91,1a.6.6,0,0,0,.39-.08l6-3.56,6,3.56a.6.6,0,0,0,.39.08l6.91-1,4.19,5.6a.6.6,0,0,0,.33.22l6.76,1.75L62.13,18a.61.61,0,0,0,.22.34l5.58,4.22-1,6.94a.61.61,0,0,0,.08.4l3.55,6Z"/><path class="cls-1" d="M35.78,11a25,25,0,1,0,24.74,25A24.88,24.88,0,0,0,35.78,11Z"/></g></g></svg>