<svg xmlns="http://www.w3.org/2000/svg" viewBox="0 0 108.92 112.17"><defs><style>.cls-1{fill:none;stroke:#210049;stroke-linecap:round;stroke-linejoin:round;stroke-width:2px;}.cls-2{fill:#210049;}</style></defs><title>Recurso 2</title><g id="Capa_2" data-name="Capa 2"><g id="Layer_1" data-name="Layer 1"><path class="cls-1" d="M32.78,33a32,32,0,0,1,17.88-5.12,32.09,32.09,0,0,1,17.66,5"/><path class="cls-1" d="M38.6,28.68a16.32,16.32,0,1,1,23.28.23"/><path class="cls-1" d="M41.94,22.08A9.82,9.82,0,1,1,60.35,17.3a8.32,8.32,0,0,1-1.44,5"/><path class="cls-1" d="M35.41,23.2C15.19,28.62,2.05,44.74,2.05,63.63c0,23.36,22.4,42.3,50,42.3,15.4,0,29.17-5.88,38.34-15.14,18.69-9.83,18-24.4,17.17-29.4a1.78,1.78,0,0,0-1.76-1.64l-3.9.33c-1.14-11.53-7.74-21.75-17.6-28.79l.77-2.39c.74-2.3-.24-4.9-2.13-5.66a2.94,2.94,0,0,0-3.35.92L77.12,27c-3.91-1.92-7.21-3.85-11.7-4.82"/><path class="cls-1" d="M17.84,94.39l-.3,12.1a4.69,4.69,0,0,0,4.69,4.69H34.45a4.69,4.69,0,0,0,4.69-4.69v-1.64"/><path class="cls-1" d="M62.3,105.63v1.86A3.68,3.68,0,0,0,66,111.17H80.22a3.68,3.68,0,0,0,3.69-3.68V97"/><path class="cls-1" d="M81.17,52.42c0-3.36,2.19-6.08,4.89-6.08s4.89,2.72,4.89,6.08"/><path class="cls-2" d="M5.7,34.06a2.79,2.79,0,0,1,0,5.54,2.79,2.79,0,0,1,0-5.54m0-2a4.78,4.78,0,0,0,0,9.54,4.78,4.78,0,0,0,0-9.54Z"/><path class="cls-1" d="M1.09,37.41s-1.1-4.95,4.26-9"/></g></g></svg>