<svg id="Layer_1" data-name="Layer 1" xmlns="http://www.w3.org/2000/svg" viewBox="0 0 191 197"><defs><style>.cls-1,.cls-5{fill:#210049;}.cls-2{fill:#fff;}.cls-3{fill:#ff3654;}.cls-4{fill:#7430df;}.cls-5{opacity:0.2;}.cls-6{fill:#faebae;}</style></defs><title>Medals</title><path class="cls-1" d="M184.63,98.51c0-4,1.26-8.34,2.47-12.53,1.75-6.05,3.57-12.31,1.74-17.94-1.92-5.91-7.19-10-12.29-13.89-3.5-2.7-6.81-5.24-9-8.29s-3.75-7.26-5.19-11.27c-2.16-6-4.39-12.24-9.34-15.84s-11.46-3.77-17.82-4c-4.3-.14-8.74-.28-12.44-1.48-3.5-1.14-6.89-3.46-10.48-5.92C106.91,3.7,101.39-.09,95-.09S83.18,3.7,77.84,7.36c-3.59,2.46-7,4.79-10.48,5.92-3.7,1.2-8.15,1.35-12.44,1.48-6.36.2-12.93.42-17.82,4s-7.18,9.82-9.34,15.84c-1.44,4-2.93,8.17-5.19,11.27s-5.52,5.59-9,8.29C8.44,58.06,3.17,62.12,1.25,68-.58,73.67,1.24,79.92,3,86,4.2,90.16,5.46,94.5,5.46,98.51S4.2,106.85,3,111C1.24,117.09-.58,123.35,1.25,129c1.92,5.91,7.19,10,12.29,13.89,3.5,2.7,6.81,5.24,9,8.29s3.75,7.26,5.19,11.27c2.16,6,4.39,12.24,9.34,15.84s11.46,3.77,17.82,4c4.3.14,8.74.28,12.44,1.48,3.5,1.13,6.89,3.46,10.48,5.92,5.34,3.66,10.87,7.45,17.21,7.45s11.87-3.79,17.21-7.45c3.59-2.46,7-4.79,10.48-5.92,3.7-1.2,8.15-1.35,12.44-1.48,6.36-.2,12.93-.42,17.82-4s7.18-9.82,9.34-15.84c1.44-4,2.93-8.17,5.19-11.27s5.52-5.59,9-8.29c5.1-3.93,10.37-8,12.29-13.89,1.83-5.63,0-11.89-1.74-17.94C185.89,106.85,184.63,102.51,184.63,98.51Z"/><path class="cls-2" d="M172,98.51c0-3.44,1.08-7.17,2.12-10.77,1.51-5.2,3.06-10.57,1.49-15.41-1.65-5.07-6.18-8.56-10.55-11.94-3-2.32-5.85-4.51-7.75-7.12s-3.22-6.23-4.46-9.68c-1.85-5.17-3.77-10.51-8-13.6s-9.85-3.24-15.31-3.41c-3.69-.12-7.51-.24-10.69-1.27-3-1-5.92-3-9-5.09-4.59-3.14-9.34-6.4-14.78-6.4s-10.19,3.25-14.78,6.4c-3.09,2.11-6,4.11-9,5.09-3.18,1-7,1.16-10.69,1.27-5.46.18-11.11.36-15.31,3.41s-6.17,8.44-8,13.6c-1.24,3.45-2.52,7-4.46,9.68S28,58.08,25,60.39c-4.38,3.37-8.91,6.86-10.55,11.94-1.57,4.84,0,10.21,1.49,15.41,1,3.6,2.12,7.32,2.12,10.77S17,105.67,16,109.27c-1.51,5.2-3.06,10.57-1.49,15.41,1.65,5.07,6.18,8.56,10.55,11.94,3,2.32,5.85,4.5,7.75,7.12S36,150,37.24,153.43c1.85,5.17,3.77,10.51,8,13.6s9.85,3.24,15.31,3.41c3.69.12,7.51.24,10.69,1.27,3,1,5.92,3,9,5.09,4.59,3.14,9.34,6.4,14.78,6.4s10.19-3.25,14.78-6.4c3.09-2.11,6-4.11,9-5.09,3.18-1,7-1.16,10.69-1.27,5.46-.18,11.11-.36,15.31-3.41s6.17-8.44,8-13.6c1.24-3.45,2.52-7,4.46-9.68s4.74-4.8,7.75-7.12c4.38-3.37,8.91-6.86,10.55-11.94,1.57-4.84,0-10.21-1.49-15.41C173.08,105.67,172,101.95,172,98.51Z"/><path class="cls-3" d="M176.43,98.51c0-3.72,1.23-7.74,2.41-11.63,1.67-5.48,3.4-11.14,1.76-16.18-1.72-5.28-6.56-8.89-11.24-12.39-3.16-2.36-6.42-4.8-8.49-7.64s-3.44-6.79-4.73-10.56c-1.88-5.49-3.82-11.17-8.24-14.39s-10.34-3.29-16.12-3.4c-4-.07-8.15-.15-11.59-1.27-3.26-1.06-6.39-3.28-9.7-5.63C105.68,12,100.72,8.51,95,8.51S84.41,12,79.6,15.42C76.29,17.77,73.16,20,69.9,21c-3.45,1.12-7.59,1.2-11.59,1.27-5.77.1-11.74.21-16.11,3.4s-6.36,8.9-8.24,14.39c-1.29,3.77-2.62,7.67-4.73,10.55s-5.33,5.28-8.49,7.64C16,61.8,11.21,65.41,9.49,70.69c-1.64,5,.09,10.71,1.76,16.18,1.19,3.89,2.41,7.91,2.41,11.63s-1.23,7.74-2.41,11.63c-1.67,5.48-3.4,11.14-1.76,16.18,1.72,5.28,6.56,8.9,11.25,12.4,3.16,2.36,6.42,4.79,8.49,7.63s3.44,6.79,4.73,10.56c1.88,5.49,3.82,11.17,8.24,14.39s10.34,3.29,16.12,3.4c4,.07,8.14.15,11.59,1.27,3.26,1.06,6.39,3.28,9.7,5.63,4.8,3.4,9.77,6.92,15.44,6.92s10.64-3.52,15.45-6.92c3.31-2.35,6.44-4.56,9.7-5.62,3.44-1.12,7.58-1.2,11.6-1.27,5.77-.1,11.74-.21,16.11-3.4s6.36-8.9,8.24-14.39c1.29-3.77,2.62-7.67,4.73-10.55s5.33-5.28,8.49-7.64c4.68-3.5,9.52-7.11,11.24-12.39,1.64-5-.09-10.71-1.76-16.19C177.66,106.25,176.43,102.23,176.43,98.51ZM95,186.65c-5.08,0-9.8-3.34-14.37-6.58-3.28-2.32-6.67-4.73-10.2-5.88-3.71-1.21-8-1.29-12.13-1.36-5.49-.1-11.16-.2-15.06-3s-5.79-8.27-7.58-13.49c-1.33-3.9-2.71-7.93-5-11s-5.61-5.59-8.89-8c-4.45-3.32-9-6.76-10.58-11.47-1.46-4.49.11-9.62,1.77-15.06,1.23-4,2.49-8.17,2.49-12.17S14.25,90.35,13,86.33c-1.66-5.44-3.23-10.58-1.77-15.06,1.54-4.72,6.14-8.16,10.6-11.49,3.26-2.44,6.64-5,8.87-8s3.65-7.15,5-11.05c1.79-5.22,3.63-10.61,7.58-13.49s9.57-2.94,15.06-3c4.14-.08,8.42-.15,12.13-1.36,3.53-1.15,6.92-3.55,10.2-5.88C85.24,13.71,90,10.36,95,10.36s9.8,3.34,14.37,6.58c3.28,2.32,6.67,4.73,10.2,5.88,3.71,1.21,8,1.29,12.13,1.36,5.49.1,11.16.2,15.06,3s5.79,8.27,7.58,13.5c1.33,3.9,2.71,7.93,5,11s5.61,5.59,8.88,8c4.45,3.32,9,6.76,10.59,11.48,1.46,4.49-.11,9.62-1.77,15.06-1.23,4-2.49,8.17-2.49,12.17s1.27,8.16,2.5,12.18c1.66,5.44,3.22,10.57,1.76,15.06-1.54,4.72-6.14,8.16-10.59,11.48-3.27,2.44-6.65,5-8.88,8s-3.65,7.15-5,11c-1.79,5.22-3.63,10.62-7.58,13.49s-9.57,2.94-15.06,3c-4.14.08-8.42.15-12.13,1.36-3.53,1.15-6.92,3.55-10.2,5.88C104.85,183.31,100.13,186.65,95,186.65Z"/><path class="cls-4" d="M132.69,50.7l-4.17-5.2c-22.65,10.27-37.33.07-37.33.07-12.12,28-35,43.37-35,43.37S49.61,156,95.34,156h.93C137.31,113.12,132.69,50.7,132.69,50.7Z"/><path class="cls-1" d="M57.17,88.94S80,73.55,92.15,45.58c0,0,14.4,10,36.67.21,0-.33,0-.51,0-.51l-5.25-2.39C99.66,50.53,86.29,40,86.29,40c-12.41,28.64-35.8,44.39-35.8,44.39S45.68,156,92.5,156h1l.09-.09C50.84,153.27,57.17,88.94,57.17,88.94Z"/><path class="cls-5" d="M132.69,49.75l-4.17-5.2A46.46,46.46,0,0,1,106.1,49c-.27,17.92-4.28,62.73-35.47,96.26,5.76,5.88,13.72,9.76,24.71,9.76h.93C137.31,112.17,132.69,49.75,132.69,49.75Z"/><path class="cls-6" d="M128.49,46.35l3.45,4.29a168.07,168.07,0,0,1-3.28,36.67c-3.77,19.15-12.59,46.47-33.19,68.19H95c-10,0-18.07-3.42-24.12-10.17C55.15,127.81,57.73,93,58.12,88.7c3-2.17,22.93-17,34.14-42.06a34.87,34.87,0,0,0,16.89,4,48.15,48.15,0,0,0,19.33-4.31m.3-1.23a47.31,47.31,0,0,1-19.63,4.54c-10.91,0-17.34-4.47-17.34-4.47-12,27.71-34.64,43-34.64,43S49.67,156.5,95,156.5h.92c40.65-42.49,37-106.23,37-106.23l-4.14-5.15Z"/></svg>