<svg id="Layer_1" data-name="Layer 1" xmlns="http://www.w3.org/2000/svg" viewBox="0 0 200 200"><defs><style>.cls-1{fill:#210049;}.cls-2{fill:#fff;}.cls-3{fill:#ff3654;}.cls-4{fill:#7430df;}.cls-5{fill:#fd3073;}</style></defs><title>Medals</title><path class="cls-1" d="M190.42,98.83c0-4,1.26-8.34,2.47-12.53,1.75-6.05,3.57-12.31,1.74-17.94-1.92-5.91-7.19-10-12.29-13.89-3.5-2.7-6.81-5.24-9-8.29s-3.75-7.26-5.19-11.27c-2.16-6-4.39-12.24-9.34-15.84s-11.46-3.77-17.82-4c-4.3-.14-8.74-.28-12.44-1.48-3.5-1.14-6.89-3.46-10.48-5.92C112.7,4,107.18.23,100.84.23S89,4,83.63,7.68c-3.59,2.46-7,4.79-10.48,5.92-3.7,1.2-8.15,1.35-12.44,1.48-6.36.2-12.93.42-17.82,4S35.7,28.88,33.54,34.9c-1.44,4-2.93,8.17-5.19,11.27s-5.52,5.59-9,8.29C14.23,58.39,9,62.45,7,68.36,5.21,74,7,80.25,8.78,86.3c1.21,4.19,2.47,8.53,2.47,12.53S10,107.17,8.78,111.36C7,117.41,5.21,123.67,7,129.3c1.92,5.91,7.19,10,12.29,13.89,3.5,2.7,6.81,5.24,9,8.29s3.75,7.26,5.19,11.27c2.16,6,4.39,12.24,9.34,15.84s11.46,3.77,17.82,4c4.3.14,8.74.28,12.44,1.48,3.5,1.13,6.89,3.46,10.48,5.92,5.34,3.66,10.87,7.45,17.21,7.45S112.7,193.64,118,190c3.59-2.46,7-4.79,10.48-5.92,3.7-1.2,8.15-1.35,12.44-1.48,6.36-.2,12.93-.42,17.82-4s7.18-9.82,9.34-15.84c1.44-4,2.93-8.17,5.19-11.27s5.52-5.59,9-8.29c5.1-3.93,10.37-8,12.29-13.89,1.83-5.63,0-11.89-1.74-17.94C191.68,107.17,190.42,102.84,190.42,98.83Z"/><path class="cls-2" d="M177.79,98.83c0-3.44,1.08-7.17,2.12-10.77,1.51-5.2,3.06-10.57,1.49-15.41-1.65-5.07-6.18-8.56-10.55-11.94-3-2.32-5.85-4.51-7.75-7.12s-3.22-6.23-4.46-9.68c-1.85-5.17-3.77-10.51-8-13.6s-9.85-3.24-15.31-3.41c-3.69-.12-7.51-.24-10.69-1.27-3-1-5.92-3-9-5.09-4.59-3.14-9.34-6.4-14.78-6.4s-10.19,3.25-14.78,6.4c-3.09,2.11-6,4.11-9,5.09-3.18,1-7,1.16-10.69,1.27-5.46.18-11.11.36-15.31,3.41s-6.17,8.44-8,13.6c-1.24,3.45-2.52,7-4.46,9.68s-4.74,4.8-7.75,7.12c-4.38,3.37-8.91,6.86-10.55,11.94-1.57,4.84,0,10.21,1.49,15.41,1,3.6,2.12,7.32,2.12,10.77S22.8,106,21.76,109.6c-1.51,5.2-3.06,10.57-1.49,15.41,1.65,5.07,6.18,8.56,10.55,11.94,3,2.32,5.85,4.5,7.75,7.12s3.22,6.23,4.46,9.68c1.85,5.17,3.77,10.51,8,13.6s9.85,3.24,15.31,3.41C70,170.88,73.87,171,77,172c3,1,5.92,3,9,5.09,4.59,3.14,9.34,6.4,14.78,6.4s10.19-3.25,14.78-6.4c3.09-2.11,6-4.11,9-5.09,3.18-1,7-1.16,10.69-1.27,5.46-.18,11.11-.36,15.31-3.41s6.17-8.44,8-13.6c1.24-3.45,2.52-7,4.46-9.68s4.74-4.8,7.75-7.12c4.38-3.37,8.91-6.86,10.55-11.94,1.57-4.84,0-10.21-1.49-15.41C178.87,106,177.79,102.27,177.79,98.83Z"/><path class="cls-3" d="M182.22,98.83c0-3.72,1.23-7.74,2.41-11.63,1.67-5.48,3.4-11.14,1.76-16.18-1.72-5.28-6.56-8.89-11.24-12.39-3.16-2.36-6.42-4.8-8.49-7.64s-3.44-6.79-4.73-10.56c-1.88-5.49-3.82-11.17-8.24-14.39s-10.34-3.29-16.12-3.4c-4-.07-8.15-.15-11.59-1.27-3.26-1.06-6.39-3.28-9.7-5.63-4.8-3.4-9.77-6.92-15.44-6.92S90.2,12.35,85.39,15.75c-3.31,2.35-6.45,4.56-9.7,5.63-3.45,1.12-7.59,1.2-11.59,1.27-5.77.1-11.74.21-16.11,3.4s-6.36,8.9-8.24,14.39C38.45,44.2,37.12,48.1,35,51s-5.33,5.28-8.49,7.64C21.84,62.12,17,65.73,15.28,71c-1.64,5,.09,10.71,1.76,16.18,1.19,3.89,2.41,7.91,2.41,11.63s-1.23,7.74-2.41,11.63c-1.67,5.48-3.4,11.14-1.76,16.18,1.72,5.28,6.56,8.9,11.25,12.4,3.16,2.36,6.42,4.79,8.49,7.63s3.44,6.79,4.73,10.56c1.88,5.49,3.82,11.17,8.24,14.39s10.34,3.29,16.12,3.4c4,.07,8.14.15,11.59,1.27,3.26,1.06,6.39,3.28,9.7,5.63,4.8,3.4,9.77,6.92,15.44,6.92s10.64-3.52,15.45-6.92c3.31-2.35,6.44-4.56,9.7-5.62,3.44-1.12,7.58-1.2,11.6-1.27,5.77-.1,11.74-.21,16.11-3.4s6.36-8.9,8.24-14.39c1.29-3.77,2.62-7.67,4.73-10.55s5.33-5.28,8.49-7.64c4.68-3.5,9.52-7.11,11.24-12.39,1.64-5-.09-10.71-1.76-16.19C183.45,106.57,182.22,102.55,182.22,98.83ZM100.84,187c-5.08,0-9.8-3.34-14.37-6.58-3.28-2.32-6.67-4.73-10.2-5.88-3.71-1.21-8-1.29-12.13-1.36-5.49-.1-11.16-.2-15.06-3s-5.79-8.27-7.58-13.49c-1.33-3.9-2.71-7.93-5-11s-5.61-5.59-8.89-8c-4.45-3.32-9-6.76-10.58-11.47-1.46-4.49.11-9.62,1.77-15.06,1.23-4,2.49-8.17,2.49-12.17S20,90.68,18.81,86.65C17.15,81.21,15.59,76.08,17,71.59c1.54-4.72,6.14-8.16,10.6-11.49,3.26-2.44,6.64-5,8.87-8s3.65-7.15,5-11.05c1.79-5.22,3.63-10.61,7.58-13.49s9.57-2.94,15.06-3c4.14-.08,8.42-.15,12.13-1.36,3.53-1.15,6.92-3.55,10.2-5.88C91,14,95.75,10.69,100.84,10.69s9.8,3.34,14.37,6.58c3.28,2.32,6.67,4.73,10.2,5.88,3.71,1.21,8,1.29,12.13,1.36,5.49.1,11.16.2,15.06,3s5.79,8.27,7.58,13.5c1.33,3.9,2.71,7.93,5,11s5.61,5.59,8.88,8c4.45,3.32,9,6.76,10.59,11.48,1.46,4.49-.11,9.62-1.77,15.06-1.23,4-2.49,8.17-2.49,12.17s1.27,8.16,2.5,12.18c1.66,5.44,3.22,10.57,1.76,15.06-1.54,4.72-6.14,8.16-10.59,11.48-3.27,2.44-6.65,5-8.88,8s-3.65,7.15-5,11c-1.79,5.22-3.63,10.62-7.58,13.49s-9.57,2.94-15.06,3c-4.14.08-8.42.15-12.13,1.36-3.53,1.15-6.92,3.55-10.2,5.88C110.64,183.63,105.92,187,100.84,187Z"/><path class="cls-4" d="M70.47,156.58a2.49,2.49,0,0,0,.58,2.18c.92,1.34,1.42,2.52,4.86,2.44s13.59-2.33,13.59-2.33a7.14,7.14,0,0,0,4.7-4.44l12-29.76-22.39-1.21Z"/><path class="cls-1" d="M73.61,160.27a2.49,2.49,0,0,1-.58-2.18l12.86-32L83.81,124,70.68,156.66a2.49,2.49,0,0,0,.58,2.18c.71,1,1.18,2,3,2.31C74,160.88,73.82,160.58,73.61,160.27Z"/><polygon class="cls-1" points="79.47 122.79 86.56 123.02 91.23 125.22 82 125.44 79.47 122.79"/><polygon class="cls-4" points="76.54 120.3 81.94 126.39 113.81 126.78 106.61 121.92 76.54 120.3"/><polygon class="cls-1" points="87.23 124.6 84.7 121.95 124.57 36.46 127.83 36.46 130.2 38.72 104.52 124.68 87.23 124.6"/><polygon class="cls-5" points="87.12 124.88 128.12 36.57 131.27 38.49 105.37 125.02 87.12 124.88"/><polygon class="cls-5" points="76.54 120.3 75.18 123.68 81.71 130.22 83.06 126.85 76.54 120.3"/><polygon class="cls-5" points="83.06 126.85 113.48 126.65 112.13 130.02 81.71 130.22 83.06 126.85"/></svg>