<svg id="Layer_1" data-name="Layer 1" xmlns="http://www.w3.org/2000/svg" viewBox="0 0 191 197"><defs><style>.cls-1,.cls-5{fill:#210049;}.cls-2{fill:#fff;}.cls-3{fill:#ff3654;}.cls-4{fill:#7430df;}.cls-5{opacity:0.2;}.cls-6{fill:#faebae;}.cls-7{fill:#fd3073;}</style></defs><title>Medals</title><path class="cls-1" d="M184.63,98.51c0-4,1.26-8.34,2.47-12.53,1.75-6.05,3.57-12.31,1.74-17.94-1.92-5.91-7.19-10-12.29-13.89-3.5-2.7-6.81-5.24-9-8.29s-3.75-7.26-5.19-11.27c-2.16-6-4.39-12.24-9.34-15.84s-11.46-3.77-17.82-4c-4.3-.14-8.74-.28-12.44-1.48-3.5-1.14-6.89-3.46-10.48-5.92C106.91,3.7,101.39-.09,95-.09S83.18,3.7,77.84,7.36c-3.59,2.46-7,4.79-10.48,5.92-3.7,1.2-8.15,1.35-12.44,1.48-6.36.2-12.93.42-17.82,4s-7.18,9.82-9.34,15.84c-1.44,4-2.93,8.17-5.19,11.27s-5.52,5.59-9,8.29C8.44,58.06,3.17,62.12,1.25,68-.58,73.67,1.24,79.92,3,86,4.2,90.16,5.46,94.5,5.46,98.51S4.2,106.85,3,111C1.24,117.09-.58,123.35,1.25,129c1.92,5.91,7.19,10,12.29,13.89,3.5,2.7,6.81,5.24,9,8.29s3.75,7.26,5.19,11.27c2.16,6,4.39,12.24,9.34,15.84s11.46,3.77,17.82,4c4.3.14,8.74.28,12.44,1.48,3.5,1.13,6.89,3.46,10.48,5.92,5.34,3.66,10.87,7.45,17.21,7.45s11.87-3.79,17.21-7.45c3.59-2.46,7-4.79,10.48-5.92,3.7-1.2,8.15-1.35,12.44-1.48,6.36-.2,12.93-.42,17.82-4s7.18-9.82,9.34-15.84c1.44-4,2.93-8.17,5.19-11.27s5.52-5.59,9-8.29c5.1-3.93,10.37-8,12.29-13.89,1.83-5.63,0-11.89-1.74-17.94C185.89,106.85,184.63,102.51,184.63,98.51Z"/><path class="cls-2" d="M172,98.51c0-3.44,1.08-7.17,2.12-10.77,1.51-5.2,3.06-10.57,1.49-15.41-1.65-5.07-6.18-8.56-10.55-11.94-3-2.32-5.85-4.51-7.75-7.12s-3.22-6.23-4.46-9.68c-1.85-5.17-3.77-10.51-8-13.6s-9.85-3.24-15.31-3.41c-3.69-.12-7.51-.24-10.69-1.27-3-1-5.92-3-9-5.09-4.59-3.14-9.34-6.4-14.78-6.4s-10.19,3.25-14.78,6.4c-3.09,2.11-6,4.11-9,5.09-3.18,1-7,1.16-10.69,1.27-5.46.18-11.11.36-15.31,3.41s-6.17,8.44-8,13.6c-1.24,3.45-2.52,7-4.46,9.68S28,58.08,25,60.39c-4.38,3.37-8.91,6.86-10.55,11.94-1.57,4.84,0,10.21,1.49,15.41,1,3.6,2.12,7.32,2.12,10.77S17,105.67,16,109.27c-1.51,5.2-3.06,10.57-1.49,15.41,1.65,5.07,6.18,8.56,10.55,11.94,3,2.32,5.85,4.5,7.75,7.12S36,150,37.24,153.43c1.85,5.17,3.77,10.51,8,13.6s9.85,3.24,15.31,3.41c3.69.12,7.51.24,10.69,1.27,3,1,5.92,3,9,5.09,4.59,3.14,9.34,6.4,14.78,6.4s10.19-3.25,14.78-6.4c3.09-2.11,6-4.11,9-5.09,3.18-1,7-1.16,10.69-1.27,5.46-.18,11.11-.36,15.31-3.41s6.17-8.44,8-13.6c1.24-3.45,2.52-7,4.46-9.68s4.74-4.8,7.75-7.12c4.38-3.37,8.91-6.86,10.55-11.94,1.57-4.84,0-10.21-1.49-15.41C173.08,105.67,172,101.95,172,98.51Z"/><path class="cls-3" d="M176.43,98.51c0-3.72,1.23-7.74,2.41-11.63,1.67-5.48,3.4-11.14,1.76-16.18-1.72-5.28-6.56-8.89-11.24-12.39-3.16-2.36-6.42-4.8-8.49-7.64s-3.44-6.79-4.73-10.56c-1.88-5.49-3.82-11.17-8.24-14.39s-10.34-3.29-16.12-3.4c-4-.07-8.15-.15-11.59-1.27-3.26-1.06-6.39-3.28-9.7-5.63C105.68,12,100.72,8.51,95,8.51S84.41,12,79.6,15.42C76.29,17.77,73.16,20,69.9,21c-3.45,1.12-7.59,1.2-11.59,1.27-5.77.1-11.74.21-16.11,3.4s-6.36,8.9-8.24,14.39c-1.29,3.77-2.62,7.67-4.73,10.55s-5.33,5.28-8.49,7.64C16,61.8,11.21,65.41,9.49,70.69c-1.64,5,.09,10.71,1.76,16.18,1.19,3.89,2.41,7.91,2.41,11.63s-1.23,7.74-2.41,11.63c-1.67,5.48-3.4,11.14-1.76,16.18,1.72,5.28,6.56,8.9,11.25,12.4,3.16,2.36,6.42,4.79,8.49,7.63s3.44,6.79,4.73,10.56c1.88,5.49,3.82,11.17,8.24,14.39s10.34,3.29,16.12,3.4c4,.07,8.14.15,11.59,1.27,3.26,1.06,6.39,3.28,9.7,5.63,4.8,3.4,9.77,6.92,15.44,6.92s10.64-3.52,15.45-6.92c3.31-2.35,6.44-4.56,9.7-5.62,3.44-1.12,7.58-1.2,11.6-1.27,5.77-.1,11.74-.21,16.11-3.4s6.36-8.9,8.24-14.39c1.29-3.77,2.62-7.67,4.73-10.55s5.33-5.28,8.49-7.64c4.68-3.5,9.52-7.11,11.24-12.39,1.64-5-.09-10.71-1.76-16.19C177.66,106.25,176.43,102.23,176.43,98.51ZM95,186.65c-5.08,0-9.8-3.34-14.37-6.58-3.28-2.32-6.67-4.73-10.2-5.88-3.71-1.21-8-1.29-12.13-1.36-5.49-.1-11.16-.2-15.06-3s-5.79-8.27-7.58-13.49c-1.33-3.9-2.71-7.93-5-11s-5.61-5.59-8.89-8c-4.45-3.32-9-6.76-10.58-11.47-1.46-4.49.11-9.62,1.77-15.06,1.23-4,2.49-8.17,2.49-12.17S14.25,90.35,13,86.33c-1.66-5.44-3.23-10.58-1.77-15.06,1.54-4.72,6.14-8.16,10.6-11.49,3.26-2.44,6.64-5,8.87-8s3.65-7.15,5-11.05c1.79-5.22,3.63-10.61,7.58-13.49s9.57-2.94,15.06-3c4.14-.08,8.42-.15,12.13-1.36,3.53-1.15,6.92-3.55,10.2-5.88C85.24,13.71,90,10.36,95,10.36s9.8,3.34,14.37,6.58c3.28,2.32,6.67,4.73,10.2,5.88,3.71,1.21,8,1.29,12.13,1.36,5.49.1,11.16.2,15.06,3s5.79,8.27,7.58,13.5c1.33,3.9,2.71,7.93,5,11s5.61,5.59,8.88,8c4.45,3.32,9,6.76,10.59,11.48,1.46,4.49-.11,9.62-1.77,15.06-1.23,4-2.49,8.17-2.49,12.17s1.27,8.16,2.5,12.18c1.66,5.44,3.22,10.57,1.76,15.06-1.54,4.72-6.14,8.16-10.59,11.48-3.27,2.44-6.65,5-8.88,8s-3.65,7.15-5,11c-1.79,5.22-3.63,10.62-7.58,13.49s-9.57,2.94-15.06,3c-4.14.08-8.42.15-12.13,1.36-3.53,1.15-6.92,3.55-10.2,5.88C104.85,183.31,100.13,186.65,95,186.65Z"/><path class="cls-1" d="M140.68,86C141.2,115,113.24,157.78,82,151.35c-19-3.91-32.91-23.64-22.91-52,6.71-19,20.68-38,38.56-43.59C124.31,47.46,140.36,68.42,140.68,86Z"/><path class="cls-4" d="M136.76,92.67c-1,24.38-29.57,59.16-51.41,52.53-13.28-4-16.3-23.73-6.15-46.38,7.26-16.21,18-29.2,31.29-31.85C130.06,63.06,137.36,77.95,136.76,92.67Z"/><path class="cls-5" d="M110.5,67a27.74,27.74,0,0,0-7.16,2.52c10.31,3.21,14.31,14.36,13.87,25.42-.72,17.82-16.19,41.2-33,49.9.37.14.75.28,1.14.4,21.84,6.63,50.43-28.15,51.41-52.53C137.36,77.95,130.06,63.06,110.5,67Z"/><path class="cls-1" d="M97.39,60.82a9.59,9.59,0,0,1-1.94-.2,9.7,9.7,0,0,1-6.51-4.71,12.18,12.18,0,0,1-.45-10.14c1.55-4.38,5-9.64,10.19-11.25a9.65,9.65,0,0,1,8.72,1.18,10.1,10.1,0,0,1,4.1,7.88h0c.09,4.94-2.81,11-6.89,14.37A11.3,11.3,0,0,1,97.39,60.82ZM102,39a6.21,6.21,0,0,0-1.84.31c-2.79.87-5.51,4.06-6.95,8.12-.83,2.35-.8,4.42.09,6a4.61,4.61,0,0,0,3.14,2.26,6,6,0,0,0,4.94-1.61c2.91-2.42,5.14-7,5.08-10.41h0a5.12,5.12,0,0,0-2-3.89A4.07,4.07,0,0,0,102,39Z"/><polygon class="cls-1" points="101.84 70.6 105.47 75.91 106.87 67.81 101.84 70.6"/><polygon class="cls-1" points="126.42 69.48 126.42 73.95 129.22 71.72 126.42 69.48"/><polygon class="cls-1" points="83.39 91.28 86.19 94.63 81.72 94.63 83.39 91.28"/><polygon class="cls-1" points="73.34 121.45 77.81 122.57 73.34 125.92 73.34 121.45"/><polygon class="cls-1" points="84.51 140.45 81.16 143.25 83.95 144.92 84.51 140.45"/><polygon class="cls-1" points="105.19 137.1 104.63 142.69 107.98 140.45 105.19 137.1"/><polygon class="cls-1" points="124.19 116.98 125.87 122.57 128.1 118.1 124.19 116.98"/><polygon class="cls-1" points="136.48 87.92 132.57 90.72 136.48 92.39 136.48 87.92"/><path class="cls-6" d="M116.52,66.33v1h0c5.36,0,9.74,1.74,13,5.16,4.28,4.46,6.55,11.8,6.21,20.14-.42,10.44-6.24,23.64-15.18,34.45C111.29,138.32,100.24,145,91,145a18.48,18.48,0,0,1-5.37-.78,14.82,14.82,0,0,1-9.23-8.44c-4-8.79-2.62-22.47,3.7-36.58,8-17.83,18.85-28.94,30.58-31.28a29.9,29.9,0,0,1,5.83-.61v-1m0,0a30.76,30.76,0,0,0-6,.63c-13.27,2.65-24,15.65-31.29,31.85C69,121.48,72.07,141.17,85.35,145.2A19.4,19.4,0,0,0,91,146c20.81,0,44.85-31,45.75-53.35.53-13.11-5.19-26.34-20.24-26.34Z"/><polygon class="cls-1" points="111.57 108.11 120.23 81.15 117.69 79.82 102.2 105.18 95.05 134.63 97.34 134.82 110.8 109.9 110.97 109.99 111.27 109.04 111.74 108.17 111.57 108.11"/><polygon class="cls-7" points="120.23 81.15 119.13 80.55 103.61 106.24 96.52 134.73 97.71 135.1 113.03 108.55 120.23 81.15"/><path class="cls-1" d="M112.44,105.18c.26,2.71-2.38,7-4.89,6.59-1.53-.25-2.16-2.38-1.38-5,.56-1.9,1.55-3.5,3-4C111.25,102,112.28,103.55,112.44,105.18Z"/><path class="cls-4" d="M112.66,105.6c.24,2.5-2.07,6.44-4.29,6.06-1.35-.23-1.91-2.2-1.23-4.65.49-1.75,1.36-3.23,2.61-3.68C111.6,102.67,112.52,104.09,112.66,105.6Z"/></svg>