<svg xmlns="http://www.w3.org/2000/svg" viewBox="0 0 108.78 98.77"><defs><style>.cls-1{fill:#db3371;}.cls-1,.cls-2{fill-rule:evenodd;}.cls-2{fill:#210049;}</style></defs><title>Recurso 2</title><g id="Capa_2" data-name="Capa 2"><g id="Capa_1-2" data-name="Capa 1"><path class="cls-1" d="M7.11,26.48,48.63,5.24a6.24,6.24,0,0,1,7.45,1.34l35.68,40a6.15,6.15,0,0,1-.1,8.36L53.1,96.27a9.05,9.05,0,0,1-13.23-.79L2.48,45.22A12.52,12.52,0,0,1,7.11,26.48"/><path class="cls-2" d="M96,80.3l12.62-51.51a6,6,0,0,0-3.56-7.2L50,.46a8,8,0,0,0-9.42,3.43L4.52,60.31C1.44,65.63,3.58,72,9,73.72l67,18.82C84.47,94.9,93.79,89.17,96,80.3"/></g></g></svg>