<svg xmlns="http://www.w3.org/2000/svg" viewBox="0 0 98.44 95.81"><defs><style>.cls-1{fill:none;stroke:#210049;stroke-linecap:round;stroke-linejoin:round;stroke-width:2px;}</style></defs><title>Recurso 3</title><g id="Capa_2" data-name="Capa 2"><g id="Layer_1" data-name="Layer 1"><path class="cls-1" d="M90.23,88.31h-82A7.22,7.22,0,0,1,1,81.09V8.22A7.22,7.22,0,0,1,8.21,1h82a7.22,7.22,0,0,1,7.21,7.22V81.09A7.22,7.22,0,0,1,90.23,88.31Z"/><path class="cls-1" d="M85.9,80.45H12.55c-2.18,0-4-2.08-4-4.66V14.21c0-2.58,1.77-4.66,4-4.66H85.9c2.18,0,3.95,2.09,3.95,4.66V75.79C89.84,78.36,88.08,80.45,85.9,80.45Z"/><ellipse class="cls-1" cx="49.38" cy="44.35" rx="15.11" ry="15.13"/><path class="cls-1" d="M58.4,44.28a9.09,9.09,0,1,1-9.09-9.1,9.1,9.1,0,0,1,9.09,9.1"/><path class="cls-1" d="M28.11,94.81H10.39A2.41,2.41,0,0,1,8,92.4V90.93a2.4,2.4,0,0,1,2.41-2.41H28.11a2.4,2.4,0,0,1,2.41,2.41V92.4A2.41,2.41,0,0,1,28.11,94.81Z"/><path class="cls-1" d="M91.12,94.81H73.39A2.41,2.41,0,0,1,71,92.4V90.93a2.4,2.4,0,0,1,2.41-2.41H91.12a2.41,2.41,0,0,1,2.41,2.41V92.4A2.41,2.41,0,0,1,91.12,94.81Z"/></g></g></svg>