<svg xmlns="http://www.w3.org/2000/svg" xmlns:xlink="http://www.w3.org/1999/xlink" viewBox="0 0 465 530"><defs><style>.cls-1{fill:none;}.cls-2{clip-path:url(#clip-path);}.cls-3,.cls-6{fill:#210049;}.cls-4{fill:#db3371;}.cls-4,.cls-5,.cls-6{fill-rule:evenodd;}.cls-5{fill:#77c8d4;}</style><clipPath id="clip-path" transform="translate(0 0)"><rect class="cls-1" width="465" height="530"/></clipPath></defs><title>Recurso 1</title><g id="Capa_2" data-name="Capa 2"><g id="Capa_1-2" data-name="Capa 1"><g class="cls-2"><g class="cls-2"><path class="cls-3" d="M465,435.41a2.88,2.88,0,0,0-2.78-2.78h-9.33a2.78,2.78,0,0,0-2.78,2.78v91.81a2.88,2.88,0,0,0,2.78,2.78h9.33a2.78,2.78,0,0,0,2.78-2.78Z" transform="translate(0 0)"/><path class="cls-3" d="M81.68,432.66h-9a2.77,2.77,0,0,0-2.73,2.8l0,64.43L8.59,434a3.6,3.6,0,0,0-2.72-1.31l-3.14,0A2.73,2.73,0,0,0,0,435.31v91.86A2.82,2.82,0,0,0,2.68,530h9.17a2.77,2.77,0,0,0,2.73-2.8l-.09-66L77.71,528.8S78.94,530,79.65,530h2a2.73,2.73,0,0,0,2.73-2.65l.07-1.65v-90.2a2.87,2.87,0,0,0-2.73-2.8" transform="translate(0 0)"/><path class="cls-3" d="M170.6,530h3.86a2.77,2.77,0,0,0,2.78-2.77v-8.32a2.77,2.77,0,0,0-2.78-2.77H149.18v0h-11V485.9h36.33a2.77,2.77,0,0,0,2.78-2.77v-8.32a2.77,2.77,0,0,0-2.78-2.77H138.18V446.52h36.28a2.77,2.77,0,0,0,2.78-2.77v-8.32a2.77,2.77,0,0,0-2.78-2.77H126.18a2.77,2.77,0,0,0-2.78,2.77v91.77a2.77,2.77,0,0,0,2.73,2.76H170.6Z" transform="translate(0 0)"/><path class="cls-3" d="M411.18,435.39a2.83,2.83,0,0,0-2.73-2.73h-9.14a2.73,2.73,0,0,0-2.73,2.73l.05,54.7c0,8.47-.72,12.48-3,16.5a20.7,20.7,0,0,1-17.8,9.75c-7.61,0-14.5-3.87-18-9.75-2.29-4-3-8-3-16.5l.05-54.7a2.82,2.82,0,0,0-2.73-2.73H343a2.72,2.72,0,0,0-2.73,2.73l0,58.58c0,9.32,2.29,16.21,7.32,22.52a36,36,0,0,0,56.14,0c5-6.31,7.32-13.34,7.32-22.52Z" transform="translate(0 0)"/><path class="cls-3" d="M284.67,522.39A49.26,49.26,0,0,1,258.52,530a50.58,50.58,0,0,1-37.1-16.71c-7.73-8.43-11.67-19.52-11.67-31.6a48.86,48.86,0,0,1,48.91-49c27.27,0,49,22.19,49,49.85,0,12.78-4.07,22.47-13.35,32.15m-9.84-10c6.33-6.74,9-13.48,9-23.16,0-20.08-15.18-35.53-35-35.53S224,461.17,224,481.81c0,10.24,3.37,18.39,10.12,24.85a34.27,34.27,0,0,0,40.61,5.76" transform="translate(0 0)"/><path class="cls-3" d="M305.73,525.93c2.25,2.22,1.5,4-1.66,4h-9.72a6.63,6.63,0,0,1-4-1.66l-31.77-31.36a3.36,3.36,0,0,1,2.37-5.75h7.26a6.63,6.63,0,0,1,4,1.66Z" transform="translate(0 0)"/><path class="cls-4" d="M70.14,94.08,248.23,2.94a26.78,26.78,0,0,1,32,5.75L433.25,180.33a26.36,26.36,0,0,1-.43,35.87L267.38,393.4c-16,15.58-42.89,14-56.76-3.38L50.28,174.45c-20.1-27-10.8-64.68,19.86-80.37" transform="translate(0 0)"/><path class="cls-5" d="M37.18,178.14,153.07,20.58c7-9.51,20-13.07,31.26-8.54l218,87.82c13.2,5.32,20.27,19,16.6,32.22L355,361.08c-6.94,20.77-31.68,30.83-52.28,21.26L57.49,258.41c-30.75-15.54-40.26-53.14-20.31-80.27" transform="translate(0 0)"/><path class="cls-6" d="M338.62,74.21,210.13,22.43l-93.7,48L45.56,166.74a54.68,54.68,0,0,0,4.72,7.71L146,303.14l139.74,70.61L379.5,273.32l32.56-116.76Z" transform="translate(0 0)"/></g></g></g></g></svg>