<svg xmlns="http://www.w3.org/2000/svg" viewBox="0 0 99.2 95"><defs><style>.cls-1{fill:none;stroke:#210049;stroke-linecap:round;stroke-linejoin:round;stroke-width:2px;}</style></defs><title>Recurso 6</title><g id="Capa_2" data-name="Capa 2"><g id="Layer_1" data-name="Layer 1"><path class="cls-1" d="M65,1A16.66,16.66,0,0,0,48.94,14l-14.19-4a3.27,3.27,0,0,0-1.24,0L2.59,18.75A2.27,2.27,0,0,0,1,20.89V91.58a2.32,2.32,0,0,0,2.83,2.11L34.14,85l30.31,8.66a2.22,2.22,0,0,0,1.24,0l30.93-8.84a2.27,2.27,0,0,0,1.59-2.11V12.05a2.32,2.32,0,0,0-2.83-2.14L81.15,14A16.61,16.61,0,0,0,65,1Z"/><path class="cls-1" d="M65,1A17.16,17.16,0,0,1,81.91,18.48a24.25,24.25,0,0,1-1.39,7.09C75.4,36.45,70.22,47.32,65.06,58.18,59.92,47.31,54.69,36.46,49.59,25.57a24.36,24.36,0,0,1-1.39-7.09C48.58,7.35,57,1.08,65,1Z"/><path class="cls-1" d="M65.13,11.95a6.63,6.63,0,1,0,6.52,6.73A6.66,6.66,0,0,0,65.13,11.95Z"/><line class="cls-1" x1="33.2" y1="10" x2="33.2" y2="85"/><line class="cls-1" x1="65.2" y1="94" x2="65.2" y2="57"/></g></g></svg>