<svg xmlns="http://www.w3.org/2000/svg" viewBox="0 0 86.63 108.11"><defs><style>.cls-1,.cls-2{fill:none;stroke:#210049;stroke-linecap:round;stroke-linejoin:round;stroke-width:2px;}.cls-2{stroke-dasharray:3.32 3.32 2.77 3.32 3.32 2.77;}</style></defs><title>Recurso 4</title><g id="Capa_2" data-name="Capa 2"><g id="Layer_1" data-name="Layer 1"><path class="cls-1" d="M19.4,30.4V17A8.31,8.31,0,0,0,25.8,8.74H43.31"/><path class="cls-1" d="M65.75,30.4V17a8.31,8.31,0,0,1-6.4-8.29H41.84"/><path class="cls-1" d="M85.23,72.48c.13-9.56,0-38.25,0-38.25A4.39,4.39,0,0,0,80.72,30H5.51A4.39,4.39,0,0,0,1,34.25L1.21,72.7V73C3,92.29,22,107.11,43.25,107.11s40.31-15,42-34.36C85.22,72.75,85.23,72.55,85.23,72.48Z"/><path class="cls-1" d="M68.6,1h-52A7.22,7.22,0,0,0,9.37,8.22V29.91H75.81V8.22A7.22,7.22,0,0,0,68.6,1Z"/><path class="cls-1" d="M22.07,9.41A4.07,4.07,0,1,1,18,5.35a4.07,4.07,0,0,1,4.07,4.07"/><path class="cls-1" d="M70.9,9.41a4.06,4.06,0,1,1-4.06-4.07A4.07,4.07,0,0,1,70.9,9.41"/><path class="cls-2" d="M1.7,59s23.22-19.66,42.86,0,41.07-4.92,41.07-4.92"/></g></g></svg>