<svg id="Layer_1" data-name="Layer 1" xmlns="http://www.w3.org/2000/svg" viewBox="0 0 190 190"><defs><style>.cls-1{fill:#fff1cc;}.cls-2,.cls-4,.cls-5{fill:#210049;}.cls-3{fill:#defffb;}.cls-4{opacity:0.15;}.cls-5{opacity:0.3;}.cls-6{fill:#44cca0;}.cls-7{fill:#f8eecf;}</style></defs><title>Medals</title><polygon class="cls-1" points="182.43 95 188.76 86.31 180.95 78.93 185.58 69.23 176.54 63.41 179.3 53.02 169.34 48.97 170.14 38.26 159.61 36.1 158.43 25.42 147.68 25.23 144.57 14.94 133.97 16.72 129.02 7.18 118.93 10.89 112.3 2.44 103.07 7.94 95 0.85 86.93 7.94 77.7 2.44 71.06 10.89 60.98 7.18 56.02 16.72 45.43 14.94 42.31 25.23 31.57 25.42 30.39 36.1 19.86 38.26 20.66 48.98 10.7 53.02 13.46 63.41 4.42 69.23 9.05 78.93 1.24 86.31 7.58 95 1.24 103.69 9.05 111.07 4.42 120.77 13.46 126.59 10.7 136.98 20.66 141.03 19.86 151.74 30.39 153.9 31.57 164.58 42.32 164.77 45.43 175.06 56.03 173.28 60.98 182.82 71.07 179.11 77.7 187.56 86.93 182.06 95 189.15 103.07 182.06 112.3 187.56 118.94 179.11 129.02 182.82 133.98 173.28 144.57 175.06 147.69 164.77 158.43 164.58 159.61 153.9 170.14 151.74 169.34 141.03 179.3 136.98 176.54 126.59 185.58 120.77 180.95 111.07 188.76 103.69 182.43 95"/><path class="cls-2" d="M95,190.2a1,1,0,0,1-.69-.26l-7.5-6.59-8.58,5.12a1,1,0,0,1-1.36-.25l-6.16-7.86-9.37,3.45a1,1,0,0,1-1.29-.5l-4.6-8.86-9.85,1.65a1,1,0,0,1-1.17-.73l-2.89-9.56-10-.18a1,1,0,0,1-1-.93l-1.1-9.93-9.78-2a1,1,0,0,1-.83-1.1l.74-10-9.25-3.76a1,1,0,0,1-.62-1.23l2.56-9.65-8.4-5.41a1,1,0,0,1-.38-1.33l4.3-9L.53,104.44a1,1,0,0,1-.13-1.37L6.28,95,.4,86.93a1,1,0,0,1,.13-1.37l7.25-6.87-4.3-9a1,1,0,0,1,.38-1.33l8.4-5.41L9.69,53.29a1,1,0,0,1,.62-1.24l9.25-3.76-.74-10a1,1,0,0,1,.83-1.1l9.78-2,1.1-9.93a1,1,0,0,1,1-.93l10-.18,2.89-9.56a1,1,0,0,1,1.17-.73l9.85,1.65,4.6-8.86a1,1,0,0,1,1.29-.5l9.37,3.44,6.16-7.86a1,1,0,0,1,1.36-.25l8.58,5.12L94.31.06a1,1,0,0,1,1.38,0l7.5,6.59,8.58-5.12a1,1,0,0,1,1.36.25l6.16,7.86,9.37-3.45a1,1,0,0,1,1.29.5l4.6,8.86,9.85-1.65a1,1,0,0,1,1.17.73l2.89,9.56,10,.18a1,1,0,0,1,1,.93l1.1,9.93,9.78,2a1,1,0,0,1,.83,1.1l-.74,10,9.25,3.76a1,1,0,0,1,.62,1.24l-2.56,9.65,8.4,5.41a1,1,0,0,1,.38,1.33l-4.3,9,7.25,6.87a1,1,0,0,1,.13,1.37L183.72,95l5.88,8.07a1,1,0,0,1-.13,1.37l-7.25,6.86,4.3,9a1,1,0,0,1-.38,1.33l-8.4,5.41,2.56,9.65a1,1,0,0,1-.62,1.24l-9.25,3.76.74,10a1,1,0,0,1-.83,1.1l-9.78,2-1.1,9.93a1,1,0,0,1-1,.93l-10,.18-2.89,9.56a1,1,0,0,1-1.17.73l-9.85-1.65-4.6,8.86a1,1,0,0,1-1.29.5l-9.37-3.44-6.16,7.86a1,1,0,0,1-1.36.25l-8.58-5.12-7.5,6.59A1,1,0,0,1,95,190.2Z"/><path class="cls-3" d="M95,12.82A82.18,82.18,0,1,0,177.18,95,82.28,82.28,0,0,0,95,12.82Z"/><path class="cls-4" d="M138,161a1.08,1.08,0,0,0,0-1.53L31.55,53A1.08,1.08,0,0,0,30,53L30,52.94c-18.56,31.57-15.27,71.81,10.51,97.6s66,29.07,97.6,10.51Z"/><path class="cls-5" d="M99.64,139a191.07,191.07,0,0,1-25.48,0A212,212,0,0,1,99.64,139ZM78.4,135.39a41.13,41.13,0,0,0,11.8,0A45.66,45.66,0,0,0,78.4,135.39Zm-20,9c12.33.56,23.53.57,35.87,0C82.07,143.91,70.8,143.92,58.42,144.43Zm39-.16a13.66,13.66,0,0,0,6.77,0A15.13,15.13,0,0,0,97.44,144.27Zm-30.37,6.34c12.55.56,23.95.57,36.5,0C91.14,150.09,79.67,150.1,67.07,150.61Zm42.32-.32a268.53,268.53,0,0,0,30.21,0A298,298,0,0,0,109.4,150.29Zm25.17-5.23a27.28,27.28,0,0,0,9.6,0A30.26,30.26,0,0,0,134.57,145.06Zm5.19-13a110.27,110.27,0,0,0,19.35,0A122.4,122.4,0,0,0,139.76,132.07Zm-.31,7a31,31,0,0,0,10.23,0A34.34,34.34,0,0,0,139.45,139ZM43,143.48a8.14,8.14,0,0,0,5.19,0A9,9,0,0,0,43,143.48Zm10.38,6.66a22.23,22.23,0,0,0,8.65,0A24.62,24.62,0,0,0,53.38,150.13ZM29.94,129.85a24.68,24.68,0,0,0,9.13,0A27.37,27.37,0,0,0,29.94,129.85ZM77.77,156c14.44.56,27.56.57,42,0C105.46,155.48,92.27,155.49,77.77,156ZM96,161.07a80.41,80.41,0,0,0,16.52,0A89.31,89.31,0,0,0,96,161.07Zm-14.48.48a19.13,19.13,0,0,0,8,0A21.21,21.21,0,0,0,81.55,161.54Zm7.55,4.91a80.46,80.46,0,0,0,16.52,0A89.23,89.23,0,0,0,89.1,166.46ZM60,157.27a40,40,0,0,0,11.64,0A44.44,44.44,0,0,0,60,157.27Zm64.35-.16a23,23,0,0,0,8.81,0A25.52,25.52,0,0,0,124.34,157.11Zm-95.66-36a22.23,22.23,0,0,0,8.65,0A24.63,24.63,0,0,0,28.68,121.13Zm-3.3-7.45a38,38,0,0,0,11.33,0A42.07,42.07,0,0,0,25.38,113.68Zm-1.1-4.12a38,38,0,0,0,11.33,0A42.07,42.07,0,0,0,24.28,109.56Zm-2.2-4.75a48,48,0,0,0,12.74,0A53.19,53.19,0,0,0,22.07,104.81Zm.16-6.5a49.13,49.13,0,0,0,12.9,0A54.52,54.52,0,0,0,22.23,98.31ZM20.5,92.13a45.63,45.63,0,0,0,12.43,0A50.62,50.62,0,0,0,20.5,92.13Zm1.89-3.49a27.29,27.29,0,0,0,9.6,0A30.27,30.27,0,0,0,22.39,88.64Zm1.89-8.24a27.29,27.29,0,0,0,9.6,0A30.25,30.25,0,0,0,24.28,80.4ZM24,75a49.13,49.13,0,0,0,12.9,0A54.51,54.51,0,0,0,24,75Zm6-5.23a193.55,193.55,0,0,0,25.65,0A215,215,0,0,0,29.94,69.78Zm28.48-1.43a18.41,18.41,0,0,0,7.87,0A20.39,20.39,0,0,0,58.42,68.35ZM37.34,62a200.67,200.67,0,0,0,26.12,0A222.93,222.93,0,0,0,37.34,62Zm5.82-7.13a113.81,113.81,0,0,0,19.67,0A126.49,126.49,0,0,0,43.16,54.88ZM48.35,50a68.66,68.66,0,0,0,15.26,0A76.24,76.24,0,0,0,48.35,50Zm3.46-7.13a42.25,42.25,0,0,0,12,0A46.85,46.85,0,0,0,51.81,42.84ZM31.36,56a17,17,0,0,0,7.55,0A18.82,18.82,0,0,0,31.36,56ZM133.47,71.52c11.74.56,22.4.57,34.14,0C156,71,145.25,71,133.47,71.52Zm5.66,5.39a121.31,121.31,0,0,0,20.3,0A134.67,134.67,0,0,0,139.13,76.91Zm24.7-.48a9.12,9.12,0,0,0,5.51,0A10.09,10.09,0,0,0,163.84,76.44Zm-15.1,7a127,127,0,0,0,20.77,0A141,141,0,0,0,148.73,83.41Zm4.72,6.34a45.63,45.63,0,0,0,12.43,0A50.62,50.62,0,0,0,153.45,89.75Zm.16,6a74.42,74.42,0,0,0,15.89,0A82.59,82.59,0,0,0,153.61,95.77Zm-.63,5.86a80.37,80.37,0,0,0,16.52,0A89.31,89.31,0,0,0,153,101.64Zm-3.78,4.44a17,17,0,0,0,7.55,0A18.81,18.81,0,0,0,149.2,106.07ZM132.05,66a140.84,140.84,0,0,0,21.87,0A156.31,156.31,0,0,0,132.05,66Zm26.59.16a18.4,18.4,0,0,0,7.87,0A20.39,20.39,0,0,0,158.64,66.13Zm-26-6.81a32.88,32.88,0,0,0,10.54,0A36.47,36.47,0,0,0,132.68,59.32Zm15.42.79a67.26,67.26,0,0,0,15.1,0A74.66,74.66,0,0,0,148.1,60.11ZM133.63,53a161.81,161.81,0,0,0,23.44,0A179.48,179.48,0,0,0,133.63,53ZM133,46a96.42,96.42,0,0,0,18.09,0A107.06,107.06,0,0,0,133,46Zm.16-7.45a64.45,64.45,0,0,0,14.79,0A71.61,71.61,0,0,0,133.15,38.56Zm-6.92-5.71a29.09,29.09,0,0,0,9.91,0A32.26,32.26,0,0,0,126.23,32.85Zm-74.11,3.8a59.17,59.17,0,0,0,14.16,0A65.6,65.6,0,0,0,52.12,36.66Zm9.76-8.24a230.7,230.7,0,0,0,28,0A256.13,256.13,0,0,0,61.88,28.41Zm20-4.91c13,.56,24.87.57,37.92,0C106.86,23,94.95,23,81.86,23.5Zm31,4.12a91.52,91.52,0,0,0,17.62,0A101.52,101.52,0,0,0,112.86,27.62ZM39.54,45.85a18.41,18.41,0,0,0,7.87,0A20.39,20.39,0,0,0,39.54,45.85Z"/><path class="cls-2" d="M127.41,129.75l-.76.43-.26.14-.52.28-.32.16-.48.24-.34.17-.46.22-.36.17-.46.21-.37.16-.46.2-.38.16-.46.19-.39.15-.47.18-.4.15-.47.17-.4.14-.48.16-.4.13-.49.16-.4.13-.5.15-.4.12-.51.15-.4.11-.54.14-.38.1-.58.14-.35.08-.69.16-.25.06-.55.12-.37.08-.59.12-.34.07-.77.14-.16,0-.94.15-.86.13-.27,0-.6.08-.3,0-.59.07-.28,0-.32,0-.95.09-.33,0-1.19.09h-.12l-1,.06-.35,0-.79,0h-.37l-.75,0H97.72l-.68,0h-.42l-.59,0-.43,0-.58,0-.44,0-.55,0-.44,0-.56,0-.44,0-.53-.05-.44,0-.54-.06-.44-.05L90.1,136l-.43-.06-.55-.08-.41-.06-.56-.09-.39-.06-.6-.11-.35-.06-1-.19-.08,0L84.9,135l-.28-.06-.68-.16-.36-.09L83,134.6l-.37-.1-.6-.16-.38-.11-.58-.17-.37-.11-.74-.23-.27-.08-1-.33-.14-.05-1-.34-.29-.11-1-.38-.08,0-.15-.06-.62-.26L75.2,132l-.49-.22-.29-.13-.46-.21-.29-.14-.45-.22-.31-.15-.45-.23-.29-.15-.48-.26-.24-.13-.71-.4-.66-.39-.19-.12-.46-.29-.2-.13-.53-.35-.09-.06L68,128l-.17-.12-.42-.31-.19-.14-.42-.32-.14-.11-.53-.43L66,126.5l-.41-.35-.16-.14-.35-.32-.15-.14-.47-.44h0l-.45-.45-.13-.14-.31-.33-.14-.15-.32-.37-.09-.1-.39-.47L62.6,123l-.32-.41-.07-.09-.33-.46-.07-.1-.29-.43,0-.06-.29-.47-.07-.11-.28-.48,0,0-.26-.48-.09-.17-.17-.34-.09-.2-.14-.32-.09-.21-.14-.34-.06-.14c-.06-.16-.12-.33-.18-.5h0c-.05-.16-.1-.33-.15-.49l0-.15-.11-.4,0-.09q-.06-.24-.11-.49l0-.11q0-.21-.08-.43v-.09q0-.24-.07-.49v-.1c0-.16,0-.33,0-.49v0c0-.15,0-.3,0-.45v-.14c0-.17,0-.33,0-.5l0,11.17c0,.17,0,.33,0,.5V125c0,.05,0,.11,0,.16s0,.19,0,.28v0c0,.16,0,.33,0,.49v.1c0,.15,0,.3.06.45v.13q0,.21.08.43l0,.11q.05.24.11.49l0,.09.06.22.05.18,0,.15c0,.16.1.33.15.49h0c.06.17.11.33.18.5l.06.14.07.18.07.16.09.21.14.32.09.2.17.34.08.17.26.48,0,0h0l.28.47.07.11.29.47,0,.06.29.43.07.1.33.46.07.09.32.41.06.08,0,0,.36.43.09.1.32.37.14.15.31.33.13.14.45.45h0l.46.44.15.14.35.32.16.14.41.35.11.09.53.43.14.11.42.32.19.14.42.31.17.12.6.41.09.06.53.35.2.13.23.14.24.15.19.12.66.39.71.4.24.13.48.26.29.15.45.23.31.15.26.13.18.08.29.14.46.21.29.13.49.22.27.11.62.26.14.06h0l.07,0,1,.38.29.11,1,.34.11,0h0l1,.33.27.08.74.23.15,0,.22.06.58.17.38.11.6.16.25.07.12,0,.59.15.36.09.68.16.25.06h0l.87.18.08,0,1,.19h0l.32.06.61.11.39.06.56.09h.07l.34.05.55.08.43.06.54.07h.11l.32,0,.54.06.44,0,.53.05.16,0,.28,0,.56,0,.44,0,.56,0,.23,0H95l.58,0,.43,0,.59,0H97l.68,0h2.78l.75,0h.37l.79,0,.35,0,1-.06h.12l1.19-.09.32,0,.95-.09.19,0h.12l.29,0,.59-.07.31,0,.6-.08.27,0,.85-.13h0l.94-.15.16,0,.77-.14.34-.07.59-.12.37-.08.55-.12h0l.23-.05.69-.16.35-.08.58-.14.38-.1.54-.14.4-.11.51-.15.4-.12.5-.15.4-.13.49-.16.4-.13.48-.16.4-.14.47-.17.39-.15.47-.18.39-.15.46-.19.38-.16.46-.2.37-.16.46-.21.36-.17.46-.22.34-.17.48-.24.31-.16.52-.28.26-.14.76-.43c7.75-4.5,11.63-10.4,11.65-16.3l0-11.17C139,119.36,135.16,125.25,127.41,129.75Z"/><path class="cls-6" d="M127.23,96.93c15.7,9.06,15.78,23.76.18,32.83s-41,9.07-56.67,0S55,106,70.55,96.93,111.53,87.86,127.23,96.93Z"/><path class="cls-7" d="M122.14,99.88c-6.23-3.59-14.49-5.57-23.26-5.57s-17,2-23.2,5.57-9.58,8.37-9.55,13.46,3.47,9.86,9.7,13.46,14.49,5.57,23.26,5.57,17-2,23.2-5.57,9.58-8.37,9.55-13.46S128.37,103.48,122.14,99.88Zm-1.36,26c-11.94,6.94-31.44,6.94-43.46,0s-12.08-18.23-.14-25.17,31.44-6.94,43.46,0S132.72,119,120.78,125.93Z"/><path class="cls-7" d="M115.57,106.56l5.18-3-3.5-2-5.22,3c-5.57-2.57-11.64-2.83-15.88-.37-5.26,3.06-2.42,6.39.37,9.38l-7.91,4.6a9.87,9.87,0,0,1-4-6.83l-6.07,1.17c.21,2.83,2.1,5.84,5.6,8.23L78.64,124l3.5,2,5.58-3.24c5.65,2.57,12,2.87,16.35.32,5.46-3.13,2.5-6.57-.33-9.63l7.32-4.25a13.21,13.21,0,0,1,3.8,4.94l6.06-1.26A13.76,13.76,0,0,0,115.57,106.56ZM98.63,120.19c-1.66,1-4,.92-6.47,0l6.8-4C100.12,117.75,100.48,119.11,98.63,120.19Zm2.8-9.47c-1.08-1.45-1.32-2.74.42-3.75,1.5-.87,3.61-.76,5.79.14Z"/><path class="cls-2" d="M128.2,116l-.76.43-.26.14-.52.28-.32.16-.48.24-.34.17-.46.22-.36.17-.46.21-.37.16-.46.2-.38.16-.46.19-.39.15-.47.18-.4.15-.47.17-.4.14-.48.16-.4.13-.49.16-.4.13-.5.15-.4.12-.51.15-.4.11-.54.14-.38.1-.58.14L115,121l-.69.16-.25.06-.55.12-.37.08-.59.12-.34.07-.77.14-.16,0-.94.15-.86.13-.27,0-.6.08-.3,0-.59.07-.28,0-.32,0-.95.09-.33,0-1.19.09h-.12l-1,.06-.35,0-.79,0H102l-.75,0H98.5l-.68,0h-.42l-.59,0-.43,0-.58,0-.44,0-.55,0-.44,0-.56,0-.44,0-.53-.05-.44,0-.54-.06-.44-.05-.54-.07-.43-.06-.55-.08-.41-.06-.56-.09-.39-.06-.6-.11-.35-.06-1-.18-.08,0-.87-.18-.28-.06-.68-.16-.36-.09-.59-.15-.37-.1-.6-.16-.38-.11-.58-.17-.37-.11-.74-.23-.27-.08-1-.33-.14-.05-1-.34-.29-.11-1-.38-.08,0-.15-.06-.62-.26-.27-.11-.49-.22-.29-.13-.46-.21-.29-.14-.45-.22-.31-.15-.45-.23-.29-.15-.48-.26-.24-.13-.71-.4-.66-.39-.19-.12-.46-.29L70,115l-.53-.35-.09-.06-.6-.41-.17-.12-.42-.31-.19-.14-.42-.32-.14-.11-.53-.43-.11-.09-.41-.35-.16-.14-.35-.32-.15-.14-.47-.44h0l-.45-.45-.13-.14-.31-.33-.14-.15-.32-.37-.09-.1-.39-.47-.06-.08-.32-.41-.07-.09-.33-.46-.07-.1-.29-.43,0-.06-.29-.47-.07-.11-.28-.48,0,0-.26-.48-.09-.17-.17-.34-.09-.2-.14-.32-.09-.21-.14-.34-.06-.14-.18-.5h0c-.05-.16-.1-.33-.15-.49l0-.15-.11-.4,0-.09q-.06-.24-.11-.49l0-.11q0-.21-.08-.43v-.09q0-.24-.07-.49v-.1c0-.16,0-.33,0-.49v0c0-.15,0-.3,0-.45v-.14c0-.17,0-.33,0-.5l0,11.17c0,.17,0,.33,0,.5v.14c0,.05,0,.11,0,.16s0,.19,0,.28v0c0,.16,0,.33,0,.49v.1c0,.15,0,.3.06.45v.13q0,.21.08.43l0,.11q.05.24.11.49l0,.09.06.22.05.18,0,.15c0,.16.1.33.15.49h0c.06.17.11.33.18.5l.06.14.07.18.07.16.09.21.14.32.09.2.17.34.08.17.26.48,0,0h0l.28.47.07.11.29.47,0,.06.29.43.07.1.33.46L63,120l.32.41.06.08,0,0,.36.43.09.1.32.37.14.15.31.33.13.14.45.45h0l.46.44.15.14.35.32.16.14.41.35.11.09.53.43.14.11.42.32.19.14.42.31.17.12.6.41.09.06.53.35.2.13.23.14.24.15.19.12.66.39.71.4.24.13.48.26.29.15.45.23.31.15.26.13.18.08.29.14.46.21.29.13.49.22.27.11.62.26.14.06h0l.07,0,1,.38.29.11,1,.34.11,0h0l1,.33.27.08.74.23.15,0,.22.06.58.17.38.11.6.16.25.07.12,0,.59.15.36.09.68.16.25.06h0l.87.18.08,0,1,.19h0l.32.06.61.11.39.06.56.09h.07l.34.05.55.08.43.06.54.07.11,0,.32,0,.54.06.44,0,.53.05.16,0,.28,0,.56,0,.44,0,.56,0,.22,0h.21l.58,0,.43,0,.59,0h.42l.68,0h2.78l.75,0h.37l.79,0,.35,0,1-.06h.12l1.19-.09.32,0,.95-.09.19,0h.12l.29,0,.59-.07.31,0,.6-.08.27,0,.85-.13h0l.94-.15.16,0,.77-.14.34-.07.59-.12.37-.08.55-.12h0l.23-.05.69-.16.35-.08.58-.14.38-.1.54-.14.4-.11.51-.15.4-.12.5-.15.4-.13.49-.16.4-.13.48-.16.4-.14.47-.17.39-.15.47-.18.39-.15.46-.19.38-.16.46-.2.37-.16.46-.21.36-.17.46-.22.34-.17.48-.24.31-.16.52-.28.26-.14.76-.43c7.75-4.5,11.63-10.4,11.65-16.3l0-11.17C139.83,105.56,135.95,111.45,128.2,116Z"/><path class="cls-6" d="M128,83.13c15.7,9.07,15.78,23.76.18,32.83s-41,9.07-56.67,0-15.78-23.76-.18-32.83S112.31,74.06,128,83.13Z"/><path class="cls-7" d="M122.93,86.09c-6.23-3.59-14.49-5.57-23.26-5.57s-17,2-23.2,5.57-9.58,8.37-9.55,13.46,3.47,9.86,9.7,13.46,14.49,5.57,23.26,5.57,17-2,23.2-5.57,9.58-8.37,9.55-13.46S129.15,89.68,122.93,86.09Zm-1.36,26c-11.94,6.94-31.44,6.94-43.46,0S66,93.9,78,87s31.44-6.94,43.46,0S133.51,105.19,121.57,112.13Z"/><path class="cls-7" d="M116.36,92.76l5.18-3-3.5-2-5.22,3c-5.57-2.57-11.64-2.83-15.88-.37-5.26,3.06-2.42,6.39.37,9.38l-7.91,4.6a9.87,9.87,0,0,1-4-6.83l-6.07,1.17c.21,2.83,2.1,5.84,5.6,8.23l-5.54,3.22,3.5,2,5.58-3.24c5.65,2.57,12,2.87,16.35.32,5.46-3.13,2.5-6.57-.33-9.63l7.32-4.25a13.21,13.21,0,0,1,3.8,4.94l6.06-1.26A13.76,13.76,0,0,0,116.36,92.76ZM99.41,106.39c-1.66,1-4,.92-6.47,0l6.8-4C100.91,104,101.27,105.31,99.41,106.39Zm2.8-9.47c-1.08-1.45-1.32-2.74.42-3.75,1.5-.87,3.61-.76,5.79.14Z"/><path class="cls-2" d="M128.2,98.56l-.76.43-.26.14-.52.28-.32.16-.48.24-.34.17-.46.22-.36.17-.46.21-.37.16-.46.2-.38.16-.46.19-.39.15-.47.18-.4.15-.47.17-.4.14-.48.16-.4.13-.49.16-.4.13-.5.15-.4.12-.51.15-.4.11-.54.14-.38.1-.58.14-.35.08-.69.16-.25.06-.55.12-.37.08-.59.12-.34.07-.77.14-.16,0-.94.15-.86.13-.27,0-.6.08-.3,0-.59.07-.28,0-.32,0-.95.09-.33,0-1.19.09h-.12l-1,.06-.35,0-.79,0H102l-.75,0H98.5l-.68,0h-.42l-.59,0-.43,0-.58,0-.44,0-.55,0-.44,0-.56,0-.44,0-.53-.05-.44,0-.54-.06-.44-.05-.54-.07-.43-.06-.55-.08-.41-.06-.56-.09-.39-.06-.6-.11-.35-.06-1-.19-.08,0-.87-.18-.28-.06-.68-.16-.36-.09-.59-.15-.37-.1-.6-.16-.38-.11-.58-.17-.37-.11-.74-.23-.27-.08-1-.33-.14-.05-1-.34-.29-.11-1-.38-.08,0-.15-.06-.62-.26-.27-.11-.49-.22-.29-.13-.46-.21-.29-.14L74,99.87l-.31-.15-.45-.23L73,99.34l-.48-.26L72.23,99l-.71-.4-.66-.39-.19-.12-.46-.29-.2-.13-.53-.35-.09-.06-.6-.41-.17-.12-.42-.31L68,96.25l-.42-.32-.14-.11-.53-.43-.11-.09L66.41,95l-.16-.14-.35-.32-.15-.14-.47-.44h0l-.45-.45-.13-.14L64.39,93l-.14-.15-.32-.37-.09-.1-.39-.47-.06-.08-.32-.41L63,91.32l-.33-.46-.07-.1-.29-.43,0-.06L62,89.81l-.07-.11-.28-.48,0,0-.26-.48-.09-.17-.17-.34L61,88l-.14-.32-.09-.21-.14-.34L60.6,87c-.06-.16-.12-.33-.18-.5h0c-.05-.16-.1-.33-.15-.49l0-.15-.11-.4,0-.09q-.06-.24-.11-.49l0-.11q0-.21-.08-.43v-.09q0-.24-.07-.49v-.1c0-.16,0-.33,0-.49v0c0-.15,0-.3,0-.45v-.14c0-.17,0-.33,0-.5l0,11.17c0,.17,0,.33,0,.5v.14c0,.05,0,.11,0,.16s0,.19,0,.28v0c0,.16,0,.33,0,.49v.1c0,.15,0,.3.06.45v.13q0,.21.08.43L60,96q.05.24.11.49l0,.09.06.22.05.18,0,.15c0,.16.1.33.15.49h0c.06.17.11.33.18.5l.06.14.07.18.07.16.09.21.14.32.09.2.17.34.08.17.26.48,0,0h0l.28.47.07.11.29.47,0,.06.29.43.07.1.33.46.07.09.32.41.06.08,0,0,.36.43.09.1.32.37.14.15.31.33.13.14.45.45h0l.46.44.15.14.35.32.16.14.41.35.11.09.53.43.14.11.42.32.19.14.42.31.17.12.6.41.09.06.53.35.2.13.23.14.24.15.19.12.66.39.71.4.24.13.48.26.29.15.45.23L74,111l.26.13.18.08.29.14.46.21.29.13.49.22.27.11.62.26.14.06h0l.07,0,1,.38.29.11,1,.34.11,0h0l1,.33.27.08.74.23.15,0,.22.06.58.17.38.11.6.16.25.07.12,0,.59.15.36.09.68.16.25.06h0l.87.18.08,0,1,.19h0l.32.06.61.11.39.06.56.09h.07l.34.05.55.08.43.06.54.07.11,0,.32,0,.54.06.44,0,.53.05.16,0,.28,0,.56,0,.44,0,.56,0,.23,0h.21l.58,0,.43,0,.59,0h.42l.68,0h2.78l.75,0h.37l.79,0,.35,0,1-.06h.12l1.19-.09.32,0,.95-.09.19,0h.12l.29,0,.59-.07.31,0,.6-.08.27,0,.85-.13h0l.94-.15.16,0,.77-.14.34-.07.59-.12.37-.08L114,115h0l.23-.05.69-.16.35-.08.58-.14.38-.1.54-.14.4-.11.51-.15.4-.12.5-.15.4-.13.49-.16.4-.13.48-.16.4-.14.47-.17.39-.15.47-.18.39-.15.46-.19.38-.16.46-.2.37-.16.46-.21.36-.17.46-.22.34-.17.48-.24.31-.16.52-.28.26-.14.76-.43c7.75-4.5,11.63-10.4,11.65-16.3l0-11.17C139.83,88.16,135.95,94.05,128.2,98.56Z"/><path class="cls-6" d="M128,65.73c15.7,9.07,15.78,23.76.18,32.83s-41,9.07-56.67,0-15.78-23.76-.18-32.83S112.31,56.66,128,65.73Z"/><path class="cls-7" d="M122.93,68.68c-6.23-3.59-14.49-5.57-23.26-5.57s-17,2-23.2,5.57-9.58,8.37-9.55,13.46S70.39,92,76.61,95.6s14.49,5.57,23.26,5.57,17-2,23.2-5.57,9.58-8.37,9.55-13.46S129.15,72.28,122.93,68.68Zm-1.36,26c-11.94,6.94-31.44,6.94-43.46,0S66,76.5,78,69.56s31.44-6.94,43.46,0S133.51,87.79,121.57,94.73Z"/><path class="cls-7" d="M116.36,75.36l5.18-3-3.5-2-5.22,3c-5.57-2.57-11.64-2.83-15.88-.37-5.26,3.06-2.42,6.39.37,9.38L89.4,87a9.87,9.87,0,0,1-4-6.83l-6.07,1.17c.21,2.83,2.1,5.84,5.6,8.23l-5.54,3.22,3.5,2,5.58-3.24c5.65,2.57,12,2.87,16.35.32,5.46-3.13,2.5-6.57-.33-9.63L111.85,78a13.21,13.21,0,0,1,3.8,4.94l6.06-1.26A13.76,13.76,0,0,0,116.36,75.36ZM99.41,89c-1.66,1-4,.92-6.47,0l6.8-4C100.91,86.56,101.27,87.91,99.41,89Zm2.8-9.47c-1.08-1.45-1.32-2.74.42-3.75,1.5-.87,3.61-.76,5.79.14Z"/><path class="cls-2" d="M141.85,81.91l-.76.43-.26.14-.52.28-.32.16-.48.24-.34.17-.46.22-.36.17-.46.21-.37.16-.46.2-.38.16-.46.19-.39.15-.47.18-.4.15-.47.17-.4.14-.48.16-.4.13-.49.16-.4.13-.5.15-.4.12-.51.15-.4.11-.54.14-.38.1-.58.14-.35.08-.69.16-.25.06-.55.12-.37.08-.59.12-.34.07-.77.14-.16,0-.94.15-.86.13-.27,0-.6.08-.3,0-.59.07-.28,0-.32,0-.95.09-.33,0-1.19.09h-.12l-1,.06-.35,0-.79,0h-.37l-.75,0h-2.78l-.68,0h-.42l-.59,0-.43,0-.58,0-.44,0-.55,0-.44,0-.56,0-.44,0-.53-.05-.44,0-.54-.06-.44-.05-.54-.07-.43-.06-.55-.08-.41-.06-.56-.09-.39-.06-.6-.11-.35-.06-1-.19-.08,0-.87-.18-.28-.06L98.38,87,98,86.9l-.59-.15-.37-.1-.6-.16-.38-.11-.58-.17-.37-.11-.74-.23-.27-.08-1-.33L93,85.43l-1-.34L91.74,85l-1-.38-.08,0-.15-.06-.62-.26-.27-.11-.49-.22-.29-.13-.46-.21-.29-.14-.45-.22-.31-.15-.45-.23-.29-.15-.48-.26-.24-.13-.71-.4-.66-.39-.19-.12-.46-.29-.2-.13-.53-.35-.09-.06-.6-.41L82.29,80l-.42-.31-.19-.14-.42-.32-.14-.11-.53-.43-.11-.09-.41-.35-.16-.14-.35-.32-.15-.14-.47-.44h0l-.45-.45-.13-.14L78,76.33l-.14-.15-.32-.37-.09-.1-.39-.47L77,75.16l-.32-.41-.07-.09-.33-.46-.07-.1L76,73.69l0-.06-.29-.47-.07-.11-.28-.48,0,0L75,72.06l-.09-.17-.17-.34-.09-.2L74.54,71l-.09-.21-.14-.34-.06-.14c-.06-.16-.12-.33-.18-.5h0c-.05-.16-.1-.33-.15-.49l0-.15-.11-.4,0-.09q-.06-.24-.11-.49l0-.11q0-.21-.08-.43v-.09q0-.24-.07-.49V67c0-.16,0-.33,0-.49v0c0-.15,0-.3,0-.45s0-.09,0-.14,0-.33,0-.5l0,11.17c0,.17,0,.33,0,.5v.14c0,.05,0,.11,0,.16s0,.19,0,.28v0c0,.16,0,.33,0,.49v.1c0,.15,0,.3.06.45v.13q0,.21.08.43l0,.11q.05.24.11.49l0,.09.06.22.05.18,0,.15c0,.16.1.33.15.49h0c.06.17.11.33.18.5l.06.14.07.18.07.16.09.21.14.32.09.2.17.34.08.17.26.48,0,0h0l.28.47.07.11.29.47,0,.06.29.43.07.1.33.46.07.09.32.41.06.08,0,0,.36.43.09.1.32.37.14.15.31.33.13.14.45.45h0l.46.44.15.14.35.32.16.14.41.35.11.09.53.43.14.11.42.32.19.14.42.31.17.12.6.41.09.06.53.35.2.13.23.14.24.15.19.12.66.39.71.4.24.13.48.26.29.15.45.23.31.15.26.13.18.08.29.14.46.21.29.13.49.22.27.11.62.26.14.06h0l.07,0,1,.38.29.11,1,.34.11,0h0l1,.33.27.08.74.23.15,0,.22.06.58.17.38.11.6.16.25.07.12,0,.59.15.36.09.68.16.25.06h0l.87.18.08,0,1,.19h0l.32.06.61.11.39.06.56.09h.07l.34.05.55.08.43.06.54.07.11,0,.32,0,.54.06.44,0,.53.05.16,0,.28,0,.56,0,.44,0,.56,0,.22,0h.21l.58,0,.43,0,.59,0h.42l.68,0h2.78l.75,0H116l.79,0,.35,0,1-.06h.12l1.19-.09.32,0,.95-.09.19,0h.12l.29,0,.59-.07.31,0,.6-.08.27,0,.85-.13h0l.94-.15.16,0,.77-.14.34-.07.59-.12.37-.08.55-.12h0l.23-.05.69-.16.35-.08.58-.14.38-.1.54-.14.4-.11.51-.15.4-.12.5-.15.4-.13.49-.16.4-.13.48-.16.4-.14.47-.17.39-.15.47-.18.39-.15.46-.19.38-.16.46-.2.37-.16.46-.21.36-.17.46-.22.34-.17.48-.24.31-.16.52-.28.26-.14.76-.43c7.75-4.5,11.63-10.4,11.65-16.3l0-11.17C153.48,71.51,149.6,77.4,141.85,81.91Z"/><path class="cls-6" d="M141.67,49.08c15.7,9.07,15.78,23.76.18,32.83s-41,9.07-56.67,0S69.4,58.14,85,49.08,126,40,141.67,49.08Z"/><path class="cls-7" d="M136.58,52c-6.23-3.59-14.49-5.57-23.26-5.57s-17,2-23.2,5.57-9.58,8.37-9.55,13.46,3.47,9.86,9.7,13.46,14.49,5.57,23.26,5.57,17-2,23.2-5.57,9.58-8.37,9.55-13.46S142.81,55.63,136.58,52Zm-1.36,26c-11.94,6.94-31.44,6.94-43.46,0s-12.08-18.23-.14-25.17,31.44-6.94,43.46,0S147.17,71.14,135.22,78.08Z"/><path class="cls-7" d="M130,58.71l5.18-3-3.5-2-5.22,3c-5.57-2.57-11.64-2.83-15.88-.37-5.26,3.06-2.42,6.39.37,9.38l-7.91,4.6a9.87,9.87,0,0,1-4-6.83L93,64.66c.21,2.83,2.1,5.84,5.6,8.23l-5.54,3.22,3.5,2,5.58-3.24c5.65,2.57,12,2.87,16.35.32,5.46-3.13,2.5-6.57-.33-9.63l7.32-4.25a13.21,13.21,0,0,1,3.8,4.94L135.37,65A13.76,13.76,0,0,0,130,58.71ZM113.07,72.34c-1.66,1-4,.92-6.47,0l6.8-4C114.56,69.91,114.93,71.26,113.07,72.34Zm2.8-9.47c-1.08-1.45-1.32-2.74.42-3.75,1.5-.87,3.61-.76,5.79.14Z"/><path class="cls-2" d="M103,120.51c0-.09,0-.19,0-.28s0-.37,0-.56,0-.23,0-.34,0-.34,0-.51,0-.24,0-.36,0-.32,0-.49,0-.25,0-.38,0-.32,0-.47,0-.26,0-.39,0-.31-.05-.47l-.05-.4-.06-.47-.06-.4-.07-.46-.07-.41-.08-.46-.07-.41-.09-.46-.08-.41-.09-.46-.09-.41-.1-.46-.1-.42-.11-.46-.1-.42-.12-.46-.11-.42-.13-.46L101,108l-.13-.46-.13-.42-.14-.46-.13-.42-.15-.46-.14-.42-.16-.46-.15-.42-.17-.46-.15-.41-.17-.46-.16-.41-.18-.46-.16-.41-.19-.46-.17-.41-.2-.46-.18-.4-.2-.46-.18-.4-.21-.46-.18-.39L97.16,98,97,97.6l-.23-.46-.19-.38-.24-.47-.19-.37-.26-.48-.19-.35-.28-.51-.17-.32v0L95,93.82l-.22-.39L94.49,93l-.23-.39L94,92.15l-.23-.37-.28-.45L93.25,91,93,90.5l-.22-.34-.33-.49-.2-.31-.36-.53-.18-.26-.5-.71,0-.07h0l-.52-.72-.17-.23-.36-.48-.2-.27-.34-.44-.21-.27L89,84.93l-.2-.25-.41-.51L88.19,84l-.57-.67-.13-.15-.37-.43-.08-.09-.19-.22L86.47,82l-.21-.23-.39-.42-.2-.22-.47-.49-.12-.13-.6-.61-.16-.16-.45-.44-.22-.21-.4-.38L83,78.52l-.14-.13-.26-.23-.26-.23L82,77.56l-.23-.21-.52-.45-.13-.11-.66-.54-.19-.15-.48-.38-.25-.19-.42-.32L78.82,75l-.4-.3-.28-.2-.2-.15-.16-.11-.45-.31L77,73.72l-.47-.31-.3-.2-.52-.33-.25-.16-.78-.46L74,71.89l-.18-.1-.54-.29-.13-.07-.64-.33L72.37,71l-.52-.24-.17-.08L71,70.43l-.07,0-.42-.17-.12,0L70,70l-.33-.13-.41-.15L69,69.63l-.41-.14-.3-.1-.43-.13-.28-.08-.49-.13L66.86,69l-.7-.16-.08,0-.61-.12-.24,0-.44-.07-.27,0-.4-.05-.28,0-.38,0-.29,0-.37,0H61.23l-.34,0-.29,0-.34,0-.28,0-.33,0-.16,0-.1,0-.42.07-.22,0-.5.11-.12,0-.61.16-.17.05-.43.14-.22.08-.37.14-.22.09-.36.15-.21.1-.38.18L55,70l-.54.29h0l-9.66,5.61.54-.3.18-.09.38-.18.21-.1.36-.15.22-.09.37-.14.22-.08.43-.14.17-.05.61-.16.12,0,.5-.11.22,0,.42-.07.27,0,.33,0,.28,0,.34,0,.29,0,.34,0h1.57l.37,0,.29,0,.38,0,.28,0,.4.05.27,0,.44.07.24,0,.61.12.08,0,.7.16.22.06.49.13.28.08.43.13.3.1.41.14.32.11.41.15.33.13.4.16.53.22.07,0,.64.28.17.08.52.24.15.07.65.33.13.07.54.29.18.1.66.37.78.46.25.16.52.33.3.2.47.31.32.21.45.31.36.25.28.2.4.3.27.21.42.32.25.2.47.38.19.15.66.54.13.11.52.45.23.2.41.37.26.23.39.36.22.21.41.39.21.21.45.44.16.16.6.61.12.13.47.49.2.22.39.42.21.23.39.43.19.22.45.51.13.15.57.67.14.18.41.51.2.25.35.45.21.27.34.45.2.26.36.49.17.23.52.72,0,.07.5.71.19.27.35.52.22.32.31.47.22.34.3.46.23.36.28.45.23.38.26.44.23.39.25.43.23.4.25.43.17.32.28.51.19.35.26.48.19.37.24.47.19.38.23.46.19.39.22.46.18.39.21.46.18.4.2.46.18.4.2.46L89,107l.19.46.16.41.18.46.16.41.17.46.15.41.17.46.15.41.16.46.14.42.15.46.13.42.14.46.13.42.13.46.12.42.13.46.11.42.12.46.1.42.11.46.1.42.1.46.09.41.09.46.08.41.09.46.07.41.08.46.07.41.07.46.06.4.06.47.05.4c0,.16,0,.31.05.47l0,.39c0,.16,0,.32,0,.48s0,.25,0,.38,0,.32,0,.49,0,.24,0,.36,0,.34,0,.51,0,.23,0,.34,0,.37,0,.56,0,.19,0,.28q0,.42,0,.84c0,9-3.19,15.27-8.29,18.23l9.66-5.61c5.1-3,8.27-9.27,8.29-18.23Q103,120.93,103,120.51Z"/><path class="cls-6" d="M65,77.87c15.7,9.07,28.39,31,28.34,49.08s-12.82,25.32-28.52,16.25-28.39-31-28.34-49.08S49.32,68.81,65,77.87Z"/><path class="cls-7" d="M81.46,101.12C77.08,93.52,71.23,87.35,65,83.76s-12.09-4.19-16.5-1.67-6.86,7.84-6.88,15S44,112.36,48.39,120s10.23,13.77,16.46,17.36,12.09,4.19,16.5,1.67,6.86-7.84,6.88-15S85.85,108.72,81.46,101.12ZM64.86,135.59c-12-6.94-21.77-23.82-21.73-37.63S53,78.55,65,85.49s21.77,23.82,21.73,37.63S76.88,142.53,64.86,135.59Z"/><path class="cls-7" d="M67.4,109.31l0-8.47a36.68,36.68,0,0,1,6.16,6.31l2-3.63a35.12,35.12,0,0,0-8.11-7.89l0-6-3.5-2,0,6c-5-2.26-8.29-.89-8.31,4,0,6.08,4.28,10.26,8.26,13.93l0,9.15A33.41,33.41,0,0,1,56,111.66l-2,3.49a35.39,35.39,0,0,0,9.9,10.71l0,6.41,3.5,2,0-6.45c5.06,2.23,8.49.87,8.51-4.21C75.92,117.39,71.46,113.08,67.4,109.31Zm-3.5-3.4c-1.79-1.86-3-3.71-3-5.73,0-1.74,1.16-2.17,3-1.45Zm3.46,16.8,0-7.87c1.91,2,3.26,3.9,3.25,6C70.64,122.82,69.44,123.41,67.37,122.72Z"/></svg>