<?xml version="1.0" encoding="utf-8"?>
<!-- Generator: Adobe Illustrator 21.0.0, SVG Export Plug-In . SVG Version: 6.00 Build 0)  -->
<svg version="1.1" id="Capa_1" xmlns="http://www.w3.org/2000/svg" xmlns:xlink="http://www.w3.org/1999/xlink" x="0px" y="0px"
	 viewBox="0 0 122 127" style="enable-background:new 0 0 122 127;" xml:space="preserve">
<style type="text/css">
	.st0{clip-path:url(#SVGID_2_);}
	.st1{clip-path:url(#SVGID_4_);fill:#FFFFFF;}
	.st2{clip-path:url(#SVGID_4_);fill-rule:evenodd;clip-rule:evenodd;fill:#DB3371;}
	.st3{clip-path:url(#SVGID_4_);fill-rule:evenodd;clip-rule:evenodd;fill:#77C8D4;}
	.st4{clip-path:url(#SVGID_4_);fill-rule:evenodd;clip-rule:evenodd;fill:#210049;}
</style>
<g>
	<defs>
		<rect id="SVGID_1_" x="7.3" y="2.2" width="108.4" height="123.6"/>
	</defs>
	<clipPath id="SVGID_2_">
		<use xlink:href="#SVGID_1_"  style="overflow:visible;"/>
	</clipPath>
	<g class="st0">
		<defs>
			<rect id="SVGID_3_" x="7.3" y="2.2" width="108.4" height="123.6"/>
		</defs>
		<clipPath id="SVGID_4_">
			<use xlink:href="#SVGID_3_"  style="overflow:visible;"/>
		</clipPath>
		<path class="st1" d="M115.7,103.7c0-0.3-0.3-0.6-0.6-0.6h-2.2c-0.4,0-0.6,0.3-0.6,0.6v21.4c0,0.3,0.3,0.6,0.6,0.6h2.2
			c0.4,0,0.6-0.3,0.6-0.6V103.7z"/>
		<path class="st1" d="M26.3,103.1h-2.1c-0.4,0-0.6,0.3-0.6,0.7l0,15L9.3,103.4c0,0-0.2-0.3-0.6-0.3c-0.4,0-0.7,0-0.7,0
			c-0.3,0-0.6,0.3-0.6,0.6v20.5v0.9c0,0.3,0.3,0.7,0.6,0.7h2.1c0.4,0,0.6-0.3,0.6-0.7l0-15.4l14.7,15.8c0,0,0.3,0.3,0.5,0.3h0.5
			c0.3,0,0.6-0.3,0.6-0.6l0-0.4v-21C27,103.4,26.7,103.1,26.3,103.1"/>
		<path class="st1" d="M47.1,125.8H48c0.4,0,0.6-0.3,0.6-0.6v-1.9c0-0.3-0.3-0.6-0.6-0.6h-5.9l0,0h-2.6v-7H40l0,0h8
			c0.4,0,0.6-0.3,0.6-0.6v-1.9c0-0.3-0.3-0.6-0.6-0.6h-0.3v0h-8.1v-5.9H48c0.4,0,0.6-0.3,0.6-0.6v-1.9c0-0.3-0.3-0.6-0.6-0.6h-5.9
			h-5.4c-0.4,0-0.6,0.3-0.6,0.6v21.4c0,0.3,0.3,0.6,0.6,0.6L47.1,125.8L47.1,125.8z"/>
		<path class="st1" d="M103.2,103.7c0-0.3-0.3-0.6-0.6-0.6h-2.1c-0.4,0-0.6,0.3-0.6,0.6l0,12.8c0,2-0.2,2.9-0.7,3.8
			c-0.8,1.4-2.4,2.3-4.2,2.3c-1.8,0-3.4-0.9-4.2-2.3c-0.5-0.9-0.7-1.9-0.7-3.8l0-12.8c0-0.3-0.3-0.6-0.6-0.6h-2.1
			c-0.4,0-0.6,0.3-0.6,0.6l0,13.7c0,2.2,0.5,3.8,1.7,5.2c1.6,2,4,3.1,6.6,3.1c2.5,0,5-1.2,6.5-3.1c1.2-1.5,1.7-3.1,1.7-5.2
			L103.2,103.7z"/>
		<path class="st1" d="M73.7,124c-1.8,1.1-4,1.8-6.1,1.8c-3.2,0-6.5-1.4-8.6-3.9c-1.8-2-2.7-4.6-2.7-7.4c0-6.3,5.1-11.4,11.4-11.4
			c6.4,0,11.4,5.2,11.4,11.6c0,3-0.9,5.2-3.1,7.5 M73.6,119.9c1.5-1.6,2.1-3.1,2.1-5.4c0-4.7-3.5-8.3-8.2-8.3
			c-4.7,0-8.1,3.5-8.1,8.3c0,2.4,0.8,4.3,2.4,5.8c1.5,1.5,3.6,2.3,5.6,2.3c1.3,0,2.8-0.4,3.9-1"/>
		<path class="st1" d="M78.6,124.8c0.5,0.5,0.4,0.9-0.4,0.9l-2.3,0c-0.3,0-0.7-0.2-0.9-0.4l-7.4-7.3c-0.5-0.5-0.1-1.3,0.6-1.3l1.7,0
			c0.3,0,0.7,0.2,0.9,0.4L78.6,124.8z"/>
		<path class="st2" d="M23.6,24.2L65.2,2.9c2.5-1.3,5.6-0.7,7.5,1.3l35.7,40c2.2,2.4,2.1,6-0.1,8.4L69.6,93.9
			c-3.7,3.6-10,3.3-13.2-0.8L19,42.9C14.3,36.6,16.5,27.8,23.6,24.2"/>
		<path class="st3" d="M16,43.7L43,7c1.6-2.2,4.7-3,7.3-2l50.8,20.5c3.1,1.2,4.7,4.4,3.9,7.5L90.1,86.4c-1.6,4.8-7.4,7.2-12.2,5
			L20.7,62.5C13.5,58.8,11.3,50.1,16,43.7"/>
		<path class="st4" d="M86.2,19.5l-30-12.1L34.4,18.6L17.9,41.1c0.3,0.6,0.7,1.2,1.1,1.8l22.3,30l32.6,16.5l21.9-23.4l7.6-27.2
			L86.2,19.5z"/>
	</g>
</g>
</svg>
