<svg id="Layer_1" data-name="Layer 1" xmlns="http://www.w3.org/2000/svg" viewBox="0 0 190 190"><defs><style>.cls-1{fill:#fff1cc;}.cls-2,.cls-4,.cls-5{fill:#210049;}.cls-3{fill:#defffb;}.cls-4{opacity:0.15;}.cls-5{opacity:0.3;}.cls-6{isolation:isolate;}.cls-7{fill:#2c0072;}.cls-8{fill:#7eb1c9;}.cls-9{fill:#0a7c50;}.cls-10{fill:#4dc194;}.cls-11{fill:#888;}.cls-12{fill:#115f71;}.cls-13{fill:#6cc6e9;}.cls-14{fill:#93f9cd;}.cls-15{fill:#47c690;}.cls-16{fill:#70edbf;}.cls-17{fill:#56d6a2;}.cls-18{fill:#f8eecf;}.cls-19{fill:#ccb376;}.cls-20{fill:#461fa3;}</style></defs><title>Medals</title><polygon class="cls-1" points="182.43 95 188.76 86.31 180.95 78.93 185.58 69.23 176.54 63.41 179.3 53.02 169.34 48.97 170.14 38.26 159.61 36.1 158.43 25.42 147.68 25.23 144.57 14.94 133.97 16.72 129.02 7.18 118.93 10.89 112.3 2.44 103.07 7.94 95 0.85 86.93 7.94 77.7 2.44 71.06 10.89 60.98 7.18 56.02 16.72 45.43 14.94 42.31 25.23 31.57 25.42 30.39 36.1 19.86 38.26 20.66 48.98 10.7 53.02 13.46 63.41 4.42 69.23 9.05 78.93 1.24 86.31 7.58 95 1.24 103.69 9.05 111.07 4.42 120.77 13.46 126.59 10.7 136.98 20.66 141.03 19.86 151.74 30.39 153.9 31.57 164.58 42.32 164.77 45.43 175.06 56.03 173.28 60.98 182.82 71.07 179.11 77.7 187.56 86.93 182.06 95 189.15 103.07 182.06 112.3 187.56 118.94 179.11 129.02 182.82 133.98 173.28 144.57 175.06 147.69 164.77 158.43 164.58 159.61 153.9 170.14 151.74 169.34 141.03 179.3 136.98 176.54 126.59 185.58 120.77 180.95 111.07 188.76 103.69 182.43 95"/><path class="cls-2" d="M95,190.2a1,1,0,0,1-.69-.26l-7.5-6.59-8.58,5.12a1,1,0,0,1-1.36-.25l-6.16-7.86-9.37,3.45a1,1,0,0,1-1.29-.5l-4.6-8.86-9.85,1.65a1,1,0,0,1-1.17-.73l-2.89-9.56-10-.18a1,1,0,0,1-1-.93l-1.1-9.93-9.78-2a1,1,0,0,1-.83-1.1l.74-10-9.25-3.76a1,1,0,0,1-.62-1.23l2.56-9.65-8.4-5.41a1,1,0,0,1-.38-1.33l4.3-9L.53,104.44a1,1,0,0,1-.13-1.37L6.28,95,.4,86.93a1,1,0,0,1,.13-1.37l7.25-6.87-4.3-9a1,1,0,0,1,.38-1.33l8.4-5.41L9.69,53.29a1,1,0,0,1,.62-1.24l9.25-3.76-.74-10a1,1,0,0,1,.83-1.1l9.78-2,1.1-9.93a1,1,0,0,1,1-.93l10-.18,2.89-9.56a1,1,0,0,1,1.17-.73l9.85,1.65,4.6-8.86a1,1,0,0,1,1.29-.5l9.37,3.44,6.16-7.86a1,1,0,0,1,1.36-.25l8.58,5.12L94.31.06a1,1,0,0,1,1.38,0l7.5,6.59,8.58-5.12a1,1,0,0,1,1.36.25l6.16,7.86,9.37-3.45a1,1,0,0,1,1.29.5l4.6,8.86,9.85-1.65a1,1,0,0,1,1.17.73l2.89,9.56,10,.18a1,1,0,0,1,1,.93l1.1,9.93,9.78,2a1,1,0,0,1,.83,1.1l-.74,10,9.25,3.76a1,1,0,0,1,.62,1.24l-2.56,9.65,8.4,5.41a1,1,0,0,1,.38,1.33l-4.3,9,7.25,6.87a1,1,0,0,1,.13,1.37L183.72,95l5.88,8.07a1,1,0,0,1-.13,1.37l-7.25,6.86,4.3,9a1,1,0,0,1-.38,1.33l-8.4,5.41,2.56,9.65a1,1,0,0,1-.62,1.24l-9.25,3.76.74,10a1,1,0,0,1-.83,1.1l-9.78,2-1.1,9.93a1,1,0,0,1-1,.93l-10,.18-2.89,9.56a1,1,0,0,1-1.17.73l-9.85-1.65-4.6,8.86a1,1,0,0,1-1.29.5l-9.37-3.44-6.16,7.86a1,1,0,0,1-1.36.25l-8.58-5.12-7.5,6.59A1,1,0,0,1,95,190.2Z"/><path class="cls-3" d="M95,12.82A82.18,82.18,0,1,0,177.18,95,82.28,82.28,0,0,0,95,12.82Z"/><path class="cls-4" d="M138,161a1.08,1.08,0,0,0,0-1.53L31.55,53A1.08,1.08,0,0,0,30,53L30,52.94c-18.56,31.57-15.27,71.81,10.51,97.6s66,29.07,97.6,10.51Z"/><path class="cls-5" d="M99.64,139a191.07,191.07,0,0,1-25.48,0A212,212,0,0,1,99.64,139ZM78.4,135.39a41.13,41.13,0,0,0,11.8,0A45.66,45.66,0,0,0,78.4,135.39Zm-20,9c12.33.56,23.53.57,35.87,0C82.07,143.91,70.8,143.92,58.42,144.43Zm39-.16a13.66,13.66,0,0,0,6.77,0A15.13,15.13,0,0,0,97.44,144.27Zm-30.37,6.34c12.55.56,23.95.57,36.5,0C91.14,150.09,79.67,150.1,67.07,150.61Zm42.32-.32a268.53,268.53,0,0,0,30.21,0A298,298,0,0,0,109.4,150.29Zm25.17-5.23a27.28,27.28,0,0,0,9.6,0A30.26,30.26,0,0,0,134.57,145.06Zm5.19-13a110.27,110.27,0,0,0,19.35,0A122.4,122.4,0,0,0,139.76,132.07Zm-.31,7a31,31,0,0,0,10.23,0A34.34,34.34,0,0,0,139.45,139ZM43,143.48a8.14,8.14,0,0,0,5.19,0A9,9,0,0,0,43,143.48Zm10.38,6.66a22.23,22.23,0,0,0,8.65,0A24.62,24.62,0,0,0,53.38,150.13ZM29.94,129.85a24.68,24.68,0,0,0,9.13,0A27.37,27.37,0,0,0,29.94,129.85ZM77.77,156c14.44.56,27.56.57,42,0C105.46,155.48,92.27,155.49,77.77,156ZM96,161.07a80.41,80.41,0,0,0,16.52,0A89.31,89.31,0,0,0,96,161.07Zm-14.48.48a19.13,19.13,0,0,0,8,0A21.21,21.21,0,0,0,81.55,161.54Zm7.55,4.91a80.46,80.46,0,0,0,16.52,0A89.23,89.23,0,0,0,89.1,166.46ZM60,157.27a40,40,0,0,0,11.64,0A44.44,44.44,0,0,0,60,157.27Zm64.35-.16a23,23,0,0,0,8.81,0A25.52,25.52,0,0,0,124.34,157.11Zm-95.66-36a22.23,22.23,0,0,0,8.65,0A24.63,24.63,0,0,0,28.68,121.13Zm-3.3-7.45a38,38,0,0,0,11.33,0A42.07,42.07,0,0,0,25.38,113.68Zm-1.1-4.12a38,38,0,0,0,11.33,0A42.07,42.07,0,0,0,24.28,109.56Zm-2.2-4.75a48,48,0,0,0,12.74,0A53.19,53.19,0,0,0,22.07,104.81Zm.16-6.5a49.13,49.13,0,0,0,12.9,0A54.52,54.52,0,0,0,22.23,98.31ZM20.5,92.13a45.63,45.63,0,0,0,12.43,0A50.62,50.62,0,0,0,20.5,92.13Zm1.89-3.49a27.29,27.29,0,0,0,9.6,0A30.27,30.27,0,0,0,22.39,88.64Zm1.89-8.24a27.29,27.29,0,0,0,9.6,0A30.25,30.25,0,0,0,24.28,80.4ZM24,75a49.13,49.13,0,0,0,12.9,0A54.51,54.51,0,0,0,24,75Zm6-5.23a193.55,193.55,0,0,0,25.65,0A215,215,0,0,0,29.94,69.78Zm28.48-1.43a18.41,18.41,0,0,0,7.87,0A20.39,20.39,0,0,0,58.42,68.35ZM37.34,62a200.67,200.67,0,0,0,26.12,0A222.93,222.93,0,0,0,37.34,62Zm5.82-7.13a113.81,113.81,0,0,0,19.67,0A126.49,126.49,0,0,0,43.16,54.88ZM48.35,50a68.66,68.66,0,0,0,15.26,0A76.24,76.24,0,0,0,48.35,50Zm3.46-7.13a42.25,42.25,0,0,0,12,0A46.85,46.85,0,0,0,51.81,42.84ZM31.36,56a17,17,0,0,0,7.55,0A18.82,18.82,0,0,0,31.36,56ZM133.47,71.52c11.74.56,22.4.57,34.14,0C156,71,145.25,71,133.47,71.52Zm5.66,5.39a121.31,121.31,0,0,0,20.3,0A134.67,134.67,0,0,0,139.13,76.91Zm24.7-.48a9.12,9.12,0,0,0,5.51,0A10.09,10.09,0,0,0,163.84,76.44Zm-15.1,7a127,127,0,0,0,20.77,0A141,141,0,0,0,148.73,83.41Zm4.72,6.34a45.63,45.63,0,0,0,12.43,0A50.62,50.62,0,0,0,153.45,89.75Zm.16,6a74.42,74.42,0,0,0,15.89,0A82.59,82.59,0,0,0,153.61,95.77Zm-.63,5.86a80.37,80.37,0,0,0,16.52,0A89.31,89.31,0,0,0,153,101.64Zm-3.78,4.44a17,17,0,0,0,7.55,0A18.81,18.81,0,0,0,149.2,106.07ZM132.05,66a140.84,140.84,0,0,0,21.87,0A156.31,156.31,0,0,0,132.05,66Zm26.59.16a18.4,18.4,0,0,0,7.87,0A20.39,20.39,0,0,0,158.64,66.13Zm-26-6.81a32.88,32.88,0,0,0,10.54,0A36.47,36.47,0,0,0,132.68,59.32Zm15.42.79a67.26,67.26,0,0,0,15.1,0A74.66,74.66,0,0,0,148.1,60.11ZM133.63,53a161.81,161.81,0,0,0,23.44,0A179.48,179.48,0,0,0,133.63,53ZM133,46a96.42,96.42,0,0,0,18.09,0A107.06,107.06,0,0,0,133,46Zm.16-7.45a64.45,64.45,0,0,0,14.79,0A71.61,71.61,0,0,0,133.15,38.56Zm-6.92-5.71a29.09,29.09,0,0,0,9.91,0A32.26,32.26,0,0,0,126.23,32.85Zm-74.11,3.8a59.17,59.17,0,0,0,14.16,0A65.6,65.6,0,0,0,52.12,36.66Zm9.76-8.24a230.7,230.7,0,0,0,28,0A256.13,256.13,0,0,0,61.88,28.41Zm20-4.91c13,.56,24.87.57,37.92,0C106.86,23,94.95,23,81.86,23.5Zm31,4.12a91.52,91.52,0,0,0,17.62,0A101.52,101.52,0,0,0,112.86,27.62ZM39.54,45.85a18.41,18.41,0,0,0,7.87,0A20.39,20.39,0,0,0,39.54,45.85Z"/><g class="cls-6"><polygon class="cls-2" points="158.01 80.43 157.94 106.06 159.22 105.32 159.29 79.69 158.01 80.43"/><path class="cls-2" d="M107.92,43.85l-.17-.1-.06,0-.09,0-.07,0-.11-.05-.08,0h0l-.21-.09h0l-.22-.08h0l-.08,0-.11,0h-.05l-.09,0-.07,0-.08,0-.09,0h-.14l-.11,0h-.84l-.25,0h-.08l-.15,0-.07,0-.1,0h0l-.14.06-.07,0-.2.1-1.28.74.2-.1.07,0,.14-.06.12,0,.07,0,.15,0h.08l.25,0h.72l.13,0,.11,0,.14,0,.09,0,.15,0,.09,0,.16.05.08,0,.49.2.08,0,.18.09.09,0,.23.13,46,26.57,1.28-.74Z"/><path class="cls-2" d="M159.29,79.45V79.3s0-.08,0-.12v-.26l0-.15v-.11q0-.13,0-.27h0v0l0-.23v0l0-.11,0-.13,0-.07,0-.12,0-.09,0-.11,0-.12,0-.06,0-.15,0-.1v0l-.09-.28h0v0l-.09-.24v0l0-.09,0-.13,0-.08,0-.1,0-.07-.06-.15,0-.08v0l-.12-.26h0l0-.07-.1-.2,0,0-.08-.16-.07-.13v0l-.23-.41,0,0-.06-.1-.1-.17-.09-.15-.11-.16,0-.05,0,0-.3-.43h0l-.23-.3h0l-.17-.21,0,0h0l-.21-.24h0l-.06-.07-.13-.15,0,0L156,72l-.1-.11,0,0-.1-.1-.09-.09-.05,0-.11-.1-.08-.07-.06-.05-.11-.1-.07-.06-.07-.06-.11-.09-.06,0-.09-.07-.1-.08,0,0-.13-.09-.09-.06,0,0-.23-.15h0l-.21-.13-.05,0-1.28.74.26.16h0l.25.17.09.06.17.12.1.08.15.12.11.09.14.12.11.1.14.12.11.1.14.13.1.1.14.14.09.1.16.18.06.07.22.26,0,0,.18.23.22.3h0l.3.43.07.1.11.16.09.15.1.17.08.14.23.41.08.15.08.16.11.23,0,.07.14.3,0,.08.09.22,0,.1.08.22,0,.09.1.28v0l.1.31,0,.1.06.21,0,.12,0,.2,0,.12,0,.2,0,.11,0,.27v0q0,.15,0,.3v.09c0,.07,0,.14,0,.22v.1q0,.1,0,.2v.1c0,.1,0,.19,0,.29l1.28-.74Q159.29,79.57,159.29,79.45Z"/><path class="cls-7" d="M152.66,71.17l-46-26.57c-3-1.71-5.37-.34-5.38,3.07l-.07,25.63,56.76,32.77L158,80.43A11.79,11.79,0,0,0,152.66,71.17Z"/></g><path class="cls-8" d="M34.74,93.17l-.18.13-.05,0-.12.11,0,.05-.12.16,0,0h0a2,2,0,0,0-.12.21h0v0l-.06.14,0,.08,0,0v0l0,.16v.15l0,.15v.15s0,.1,0,.15,0,.1,0,.15h0l0,10.67,43-25,0-10.67c0-.12,0-.23,0-.34v0q0-.15,0-.29v0q0-.13.07-.26l0,0a2.28,2.28,0,0,1,.09-.22v0a2,2,0,0,1,.13-.23l0,0,.12-.16,0-.05.12-.11.05,0,.18-.13Z"/><g class="cls-6"><polygon class="cls-9" points="88.74 127.83 158.07 87.54 158.02 104.72 88.69 145.01 88.74 127.83"/><polygon class="cls-10" points="31.98 95.06 101.31 54.77 158.07 87.54 88.74 127.83 31.98 95.06"/><polygon class="cls-11" points="88.74 127.83 88.69 145.01 31.93 112.24 31.98 95.06 88.74 127.83"/></g><g class="cls-6"><polygon class="cls-12" points="87.52 128.6 88.8 127.86 88.74 146.14 87.47 146.88 87.52 128.6"/><polygon class="cls-13" points="30.76 95.83 32.04 95.09 88.8 127.86 87.52 128.6 30.76 95.83"/><polygon class="cls-2" points="87.52 128.6 87.47 146.88 30.71 114.12 30.76 95.83 87.52 128.6"/></g><path class="cls-14" d="M78.71,66.29l0,0-.05,0,0,0-.06,0,0,0h0l-.12-.05h0l-.13,0h-.06l-.06,0h0L78,66h-.77l-.15,0h0l-.2.05h0l-.08,0,0,0-.12.06-43,25,.12-.06,0,0,.08,0h0L34,91h0l.15,0h.69L35,91,35,91l.09,0h0l.14.05h0l.14.06,0,0,.1,0,.05,0,.14.07,43-25Z"/><polygon class="cls-15" points="91.78 127.26 91.74 139.28 134.76 114.28 134.8 102.25 91.78 127.26"/><polygon class="cls-16" points="78.81 66.35 35.78 91.35 88.67 121.88 131.7 96.88 78.81 66.35"/><path class="cls-17" d="M89.28,122.31l0,0,.26.23,0,0,.26.26,0,0,.26.3h0a7.29,7.29,0,0,1,.47.64l.13.2.1.17,0,.08.16.29,0,0,.17.36v0l.14.36v0q.07.18.12.37v0q.05.18.1.36v0c0,.12.05.24.07.37h0c0,.12,0,.24,0,.37v0c0,.12,0,.24,0,.36l43-25s0-.09,0-.14,0-.1,0-.15v-.15l0-.15,0-.16h0l0-.15,0-.16v-.09l0-.07,0-.17,0-.12v0l-.05-.16-.06-.16v-.05l0-.1-.06-.15,0-.11v0l-.07-.15-.08-.16v0l0,0-.07-.13-.09-.16,0-.08,0,0-.09-.14-.13-.2,0,0-.2-.28-.14-.18-.12-.14h0l-.12-.14-.12-.13,0,0,0,0-.09-.09-.13-.13,0,0,0,0-.06-.06-.14-.12-.06-.05,0,0,0,0-.14-.1-.1-.07h0l-.13-.09-.13-.08,0,0-43,25,.31.2h0Z"/><path class="cls-18" d="M88.67,121.88,35.78,91.35c-1.72-1-3.12-.2-3.12,1.78v1.59l1.47-.88c.5-.95,1.58-1.18,2.83-.45l50.53,29.17a6.84,6.84,0,0,1,3.1,5.37l0,10.67,1.18.68,0-12A6.84,6.84,0,0,0,88.67,121.88Z"/><g class="cls-6"><path class="cls-19" d="M149.27,83.94l0,0,.14-.09,0,0,.11-.06,0,0,.06,0,.05,0,.05,0h0l.14,0h.46l0,0h0l0,0,0,0h0L131,72.22h0l0,0,0,0h0l-.05,0h-.46l-.14,0h0l-.05,0-.05,0-.06,0h0l-.11.06,0,0-.14.09,0,0-.12.08,0,0-.14.12L149,84.17l.14-.12,0,0Z"/><polygon class="cls-18" points="129.35 72.65 121.67 79.48 141.29 91.01 148.97 84.17 129.35 72.65"/><path class="cls-20" d="M121.67,79.48h0l0,0-.16.16,0,0,0,0-.07.08,0,0,0,.06,0,.06,0,0-.08.12v0h0l-.09.14,0,0,0,0,0,.07,0,.07,0,0v0l-.07.14h0v0l0,.11v0l0,.06,0,.06,0,.07,0,.07v0l0,.08,0,.09v.08l0,.15v.08s0,.08,0,.13,0,.06,0,.08,0,.08,0,.12,0,.05,0,.08,0,.09,0,.13v.06a1.53,1.53,0,0,0,0,.18A1,1,0,0,0,121,83l19.62,11.53a1,1,0,0,1-.42-.58,1.53,1.53,0,0,1,0-.18v-.06s0-.09,0-.13,0-.05,0-.08,0-.08,0-.12,0-.06,0-.08,0-.08,0-.13v-.08l0-.15,0-.08,0-.09,0-.11,0-.07,0-.12,0-.06.06-.15v0l.08-.18,0,0,.08-.14,0,0,.11-.17v0l.1-.14,0-.06.08-.1.07-.08.07-.07.16-.16,0,0Z"/><path class="cls-2" d="M151,84.32c-.26-.86-1.19-.93-2.08-.14L141.29,91a3.27,3.27,0,0,0-1.12,3c.26.87,1.19.93,2.07.15l7.68-6.83A3.27,3.27,0,0,0,151,84.32Z"/></g><g class="cls-6"><path class="cls-19" d="M123.18,68.71l0,0,.14-.09,0,0,.11-.06,0,0,.06,0,.05,0,.05,0h0l.14,0h.46l0,0h0l0,0,0,0h0L104.91,57h0l0,0,0,0h0l-.05,0h-.46l-.14,0h0l-.05,0L104,57l-.06,0h0l-.11.06,0,0-.14.09,0,0-.12.08,0,0-.14.12,19.62,11.53.14-.12,0,0Z"/><polygon class="cls-18" points="103.26 57.42 95.58 64.25 115.19 75.78 122.88 68.94 103.26 57.42"/><path class="cls-20" d="M95.58,64.25h0l0,0-.16.16,0,0,0,0-.07.08,0,0,0,.06,0,.06,0,0-.08.12v0h0l-.09.14,0,0,0,0,0,.07,0,.07,0,0v0l-.07.14h0v0l0,.11v0l0,.06,0,.06,0,.07,0,.07v0l0,.08,0,.09v.08l0,.15v.08s0,.08,0,.13,0,.06,0,.08,0,.08,0,.12,0,.05,0,.08,0,.09,0,.13v.06a1.52,1.52,0,0,0,0,.18,1,1,0,0,0,.42.58L114.5,79.34a1,1,0,0,1-.42-.58,1.53,1.53,0,0,1,0-.18v-.06s0-.09,0-.13,0-.05,0-.08,0-.08,0-.12,0-.06,0-.08,0-.08,0-.13V77.9l0-.15,0-.08,0-.09,0-.11,0-.07,0-.12,0-.06.06-.15v0l.08-.18,0,0,.08-.14,0,0,.11-.17v0l.1-.14,0-.06.08-.1.07-.08L115,76l.16-.16,0,0Z"/><path class="cls-2" d="M125,69.09c-.26-.86-1.19-.93-2.08-.14l-7.68,6.83a3.27,3.27,0,0,0-1.12,3c.26.87,1.19.93,2.07.15l7.68-6.83A3.27,3.27,0,0,0,125,69.09Z"/></g></svg>