<svg id="Layer_1" data-name="Layer 1" xmlns="http://www.w3.org/2000/svg" viewBox="0 0 190 190"><defs><style>.cls-1{fill:#fff1cc;}.cls-2,.cls-4,.cls-5{fill:#210049;}.cls-3{fill:#defffb;}.cls-4{opacity:0.15;}.cls-5{opacity:0.3;}.cls-6{fill:#2c0072;}.cls-7{fill:#44cca0;}.cls-8{fill:#1f9b6e;}.cls-9{fill:#bcc5c5;}.cls-10{fill:#f8eecf;}.cls-11{fill:#cfd1d2;}.cls-12{fill:#0a7c50;}.cls-13{fill:#eff6f9;}</style></defs><title>Medals</title><polygon class="cls-1" points="182.43 95 188.76 86.31 180.95 78.93 185.58 69.23 176.54 63.41 179.3 53.02 169.34 48.97 170.14 38.26 159.61 36.1 158.43 25.42 147.68 25.23 144.57 14.94 133.97 16.72 129.02 7.18 118.93 10.89 112.3 2.44 103.07 7.94 95 0.85 86.93 7.94 77.7 2.44 71.06 10.89 60.98 7.18 56.02 16.72 45.43 14.94 42.31 25.23 31.57 25.42 30.39 36.1 19.86 38.26 20.66 48.98 10.7 53.02 13.46 63.41 4.42 69.23 9.05 78.93 1.24 86.31 7.58 95 1.24 103.69 9.05 111.07 4.42 120.77 13.46 126.59 10.7 136.98 20.66 141.03 19.86 151.74 30.39 153.9 31.57 164.58 42.32 164.77 45.43 175.06 56.03 173.28 60.98 182.82 71.07 179.11 77.7 187.56 86.93 182.06 95 189.15 103.07 182.06 112.3 187.56 118.94 179.11 129.02 182.82 133.98 173.28 144.57 175.06 147.69 164.77 158.43 164.58 159.61 153.9 170.14 151.74 169.34 141.03 179.3 136.98 176.54 126.59 185.58 120.77 180.95 111.07 188.76 103.69 182.43 95"/><path class="cls-2" d="M95,190.2a1,1,0,0,1-.69-.26l-7.5-6.59-8.58,5.12a1,1,0,0,1-1.36-.25l-6.16-7.86-9.37,3.45a1,1,0,0,1-1.29-.5l-4.6-8.86-9.85,1.65a1,1,0,0,1-1.17-.73l-2.89-9.56-10-.18a1,1,0,0,1-1-.93l-1.1-9.93-9.78-2a1,1,0,0,1-.83-1.1l.74-10-9.25-3.76a1,1,0,0,1-.62-1.23l2.56-9.65-8.4-5.41a1,1,0,0,1-.38-1.33l4.3-9L.53,104.44a1,1,0,0,1-.13-1.37L6.28,95,.4,86.93a1,1,0,0,1,.13-1.37l7.25-6.87-4.3-9a1,1,0,0,1,.38-1.33l8.4-5.41L9.69,53.29a1,1,0,0,1,.62-1.24l9.25-3.76-.74-10a1,1,0,0,1,.83-1.1l9.78-2,1.1-9.93a1,1,0,0,1,1-.93l10-.18,2.89-9.56a1,1,0,0,1,1.17-.73l9.85,1.65,4.6-8.86a1,1,0,0,1,1.29-.5l9.37,3.44,6.16-7.86a1,1,0,0,1,1.36-.25l8.58,5.12L94.31.06a1,1,0,0,1,1.38,0l7.5,6.59,8.58-5.12a1,1,0,0,1,1.36.25l6.16,7.86,9.37-3.45a1,1,0,0,1,1.29.5l4.6,8.86,9.85-1.65a1,1,0,0,1,1.17.73l2.89,9.56,10,.18a1,1,0,0,1,1,.93l1.1,9.93,9.78,2a1,1,0,0,1,.83,1.1l-.74,10,9.25,3.76a1,1,0,0,1,.62,1.24l-2.56,9.65,8.4,5.41a1,1,0,0,1,.38,1.33l-4.3,9,7.25,6.87a1,1,0,0,1,.13,1.37L183.72,95l5.88,8.07a1,1,0,0,1-.13,1.37l-7.25,6.86,4.3,9a1,1,0,0,1-.38,1.33l-8.4,5.41,2.56,9.65a1,1,0,0,1-.62,1.24l-9.25,3.76.74,10a1,1,0,0,1-.83,1.1l-9.78,2-1.1,9.93a1,1,0,0,1-1,.93l-10,.18-2.89,9.56a1,1,0,0,1-1.17.73l-9.85-1.65-4.6,8.86a1,1,0,0,1-1.29.5l-9.37-3.44-6.16,7.86a1,1,0,0,1-1.36.25l-8.58-5.12-7.5,6.59A1,1,0,0,1,95,190.2Z"/><path class="cls-3" d="M95,12.82A82.18,82.18,0,1,0,177.18,95,82.28,82.28,0,0,0,95,12.82Z"/><path class="cls-4" d="M138,161a1.08,1.08,0,0,0,0-1.53L31.55,53A1.08,1.08,0,0,0,30,53L30,52.94c-18.56,31.57-15.27,71.81,10.51,97.6s66,29.07,97.6,10.51Z"/><path class="cls-5" d="M99.64,139a191.07,191.07,0,0,1-25.48,0A212,212,0,0,1,99.64,139ZM78.4,135.39a41.13,41.13,0,0,0,11.8,0A45.66,45.66,0,0,0,78.4,135.39Zm-20,9c12.33.56,23.53.57,35.87,0C82.07,143.91,70.8,143.92,58.42,144.43Zm39-.16a13.66,13.66,0,0,0,6.77,0A15.13,15.13,0,0,0,97.44,144.27Zm-30.37,6.34c12.55.56,23.95.57,36.5,0C91.14,150.09,79.67,150.1,67.07,150.61Zm42.32-.32a268.53,268.53,0,0,0,30.21,0A298,298,0,0,0,109.4,150.29Zm25.17-5.23a27.28,27.28,0,0,0,9.6,0A30.26,30.26,0,0,0,134.57,145.06Zm5.19-13a110.27,110.27,0,0,0,19.35,0A122.4,122.4,0,0,0,139.76,132.07Zm-.31,7a31,31,0,0,0,10.23,0A34.34,34.34,0,0,0,139.45,139ZM43,143.48a8.14,8.14,0,0,0,5.19,0A9,9,0,0,0,43,143.48Zm10.38,6.66a22.23,22.23,0,0,0,8.65,0A24.62,24.62,0,0,0,53.38,150.13ZM29.94,129.85a24.68,24.68,0,0,0,9.13,0A27.37,27.37,0,0,0,29.94,129.85ZM77.77,156c14.44.56,27.56.57,42,0C105.46,155.48,92.27,155.49,77.77,156ZM96,161.07a80.41,80.41,0,0,0,16.52,0A89.31,89.31,0,0,0,96,161.07Zm-14.48.48a19.13,19.13,0,0,0,8,0A21.21,21.21,0,0,0,81.55,161.54Zm7.55,4.91a80.46,80.46,0,0,0,16.52,0A89.23,89.23,0,0,0,89.1,166.46ZM60,157.27a40,40,0,0,0,11.64,0A44.44,44.44,0,0,0,60,157.27Zm64.35-.16a23,23,0,0,0,8.81,0A25.52,25.52,0,0,0,124.34,157.11Zm-95.66-36a22.23,22.23,0,0,0,8.65,0A24.63,24.63,0,0,0,28.68,121.13Zm-3.3-7.45a38,38,0,0,0,11.33,0A42.07,42.07,0,0,0,25.38,113.68Zm-1.1-4.12a38,38,0,0,0,11.33,0A42.07,42.07,0,0,0,24.28,109.56Zm-2.2-4.75a48,48,0,0,0,12.74,0A53.19,53.19,0,0,0,22.07,104.81Zm.16-6.5a49.13,49.13,0,0,0,12.9,0A54.52,54.52,0,0,0,22.23,98.31ZM20.5,92.13a45.63,45.63,0,0,0,12.43,0A50.62,50.62,0,0,0,20.5,92.13Zm1.89-3.49a27.29,27.29,0,0,0,9.6,0A30.27,30.27,0,0,0,22.39,88.64Zm1.89-8.24a27.29,27.29,0,0,0,9.6,0A30.25,30.25,0,0,0,24.28,80.4ZM24,75a49.13,49.13,0,0,0,12.9,0A54.51,54.51,0,0,0,24,75Zm6-5.23a193.55,193.55,0,0,0,25.65,0A215,215,0,0,0,29.94,69.78Zm28.48-1.43a18.41,18.41,0,0,0,7.87,0A20.39,20.39,0,0,0,58.42,68.35ZM37.34,62a200.67,200.67,0,0,0,26.12,0A222.93,222.93,0,0,0,37.34,62Zm5.82-7.13a113.81,113.81,0,0,0,19.67,0A126.49,126.49,0,0,0,43.16,54.88ZM48.35,50a68.66,68.66,0,0,0,15.26,0A76.24,76.24,0,0,0,48.35,50Zm3.46-7.13a42.25,42.25,0,0,0,12,0A46.85,46.85,0,0,0,51.81,42.84ZM31.36,56a17,17,0,0,0,7.55,0A18.82,18.82,0,0,0,31.36,56ZM133.47,71.52c11.74.56,22.4.57,34.14,0C156,71,145.25,71,133.47,71.52Zm5.66,5.39a121.31,121.31,0,0,0,20.3,0A134.67,134.67,0,0,0,139.13,76.91Zm24.7-.48a9.12,9.12,0,0,0,5.51,0A10.09,10.09,0,0,0,163.84,76.44Zm-15.1,7a127,127,0,0,0,20.77,0A141,141,0,0,0,148.73,83.41Zm4.72,6.34a45.63,45.63,0,0,0,12.43,0A50.62,50.62,0,0,0,153.45,89.75Zm.16,6a74.42,74.42,0,0,0,15.89,0A82.59,82.59,0,0,0,153.61,95.77Zm-.63,5.86a80.37,80.37,0,0,0,16.52,0A89.31,89.31,0,0,0,153,101.64Zm-3.78,4.44a17,17,0,0,0,7.55,0A18.81,18.81,0,0,0,149.2,106.07ZM132.05,66a140.84,140.84,0,0,0,21.87,0A156.31,156.31,0,0,0,132.05,66Zm26.59.16a18.4,18.4,0,0,0,7.87,0A20.39,20.39,0,0,0,158.64,66.13Zm-26-6.81a32.88,32.88,0,0,0,10.54,0A36.47,36.47,0,0,0,132.68,59.32Zm15.42.79a67.26,67.26,0,0,0,15.1,0A74.66,74.66,0,0,0,148.1,60.11ZM133.63,53a161.81,161.81,0,0,0,23.44,0A179.48,179.48,0,0,0,133.63,53ZM133,46a96.42,96.42,0,0,0,18.09,0A107.06,107.06,0,0,0,133,46Zm.16-7.45a64.45,64.45,0,0,0,14.79,0A71.61,71.61,0,0,0,133.15,38.56Zm-6.92-5.71a29.09,29.09,0,0,0,9.91,0A32.26,32.26,0,0,0,126.23,32.85Zm-74.11,3.8a59.17,59.17,0,0,0,14.16,0A65.6,65.6,0,0,0,52.12,36.66Zm9.76-8.24a230.7,230.7,0,0,0,28,0A256.13,256.13,0,0,0,61.88,28.41Zm20-4.91c13,.56,24.87.57,37.92,0C106.86,23,94.95,23,81.86,23.5Zm31,4.12a91.52,91.52,0,0,0,17.62,0A101.52,101.52,0,0,0,112.86,27.62ZM39.54,45.85a18.41,18.41,0,0,0,7.87,0A20.39,20.39,0,0,0,39.54,45.85Z"/><path class="cls-2" d="M148,110.92c0,.13,0,.27,0,.4s0,.23,0,.35,0,.27,0,.4,0,.23,0,.34,0,.27-.05.4,0,.23,0,.34,0,.27-.07.41l-.06.34c0,.13-.06.27-.09.4l-.08.34-.11.41-.09.33-.13.42-.1.32-.15.43-.11.3c-.08.21-.16.42-.25.63l0,.11q-.16.37-.33.73l-.11.22-.25.51-.15.28-.24.44-.15.26-.3.5-.18.29-.3.46-.2.3L144,122l-.21.3-.35.46-.21.27q-.32.41-.66.81l-.12.13-.6.67-.23.24-.58.6-.2.21-.81.77-.31.28-.4.36-.34.29-.41.35-.36.29-.42.34-.38.29-.43.33-.39.29-.45.32-.41.28-.46.32-.43.28-.48.31-.44.28-.49.3-.79.47-1.2.68-.35.19-.95.5-.32.17-1.25.61-.23.1-1.08.49-.39.17-1.07.45-.27.11-1.33.52-.34.13-1.06.39-.4.14-1.29.44-.1,0-1.18.37-.28.08-.91.27-.45.12-.76.21-.5.13-.71.18-.53.13-.69.17-.55.13-.69.15-.56.12-.68.14-.57.11-.68.13-.5.09-1.17.2-.36.06-1.5.22-.32,0-1.22.16-.46.05-1.26.14-.29,0-1.37.13-.23,0-1.14.09-.48,0-.9.05-.54,0-.86,0-.57,0-.73,0H92.76l-.7,0-.59,0-.71,0-.58,0-.72,0-.56,0-.74-.06-.54,0-.77-.07-.5,0-.88-.09-.4,0-1.27-.15-.18,0L82.54,140l-.3,0-1-.15-.47-.08-.8-.13-.53-.09-.74-.14-.55-.11-.71-.14-.51-.11-.82-.18-.52-.12-.8-.19-.51-.12-.84-.21-.45-.12-1-.28-.24-.07-1.46-.43-.39-.12-1.17-.38-.32-.11-1.41-.5-.31-.11-1.13-.43-.34-.13q-.88-.35-1.73-.72l-.29-.13q-.86-.38-1.69-.77l-.25-.12q-.85-.41-1.68-.84l-.17-.09q-.87-.46-1.71-.94c-7.18-4.15-11.89-9.19-14.13-14.5q-.3-.72-.55-1.46-.12-.37-.23-.73A18.31,18.31,0,0,1,42,110v3.86c0,7.91,5.2,15.82,15.64,21.86q.84.49,1.71.94l.17.09q.83.43,1.68.84l.25.12q.83.4,1.69.77l.29.13q.86.37,1.73.72l.12,0,.22.08,1.13.43L67,140l1.41.5.32.11,1.17.38.39.12,1.46.43h0l.22.06,1,.28.45.12.84.21.5.12.81.19.52.12.82.18.33.07.18,0,.72.14.54.11.75.14.52.09.81.13.47.08,1,.15.28,0h0l1.08.15.18,0,1.27.15.4,0,.88.09.5,0,.77.07h0l.49,0,.74.06.56,0,.72,0,.58,0,.71,0,.59,0,.7,0H97.3l.73,0h.56l.86,0,.54,0,.9-.05.48,0,1.14-.09.23,0,1.37-.12h.07l.22,0,1.26-.14.46-.05,1.22-.16.32,0,1.5-.22.36-.06,1.17-.2.25,0,.25,0,.68-.13.57-.11.68-.14.56-.12.69-.15.55-.13.69-.17.53-.13.71-.18.5-.13.75-.21.45-.13.91-.27.28-.08,1.18-.37h0l.08,0,1.29-.44.4-.14,1.06-.39.34-.13,1.33-.52.27-.11,1.07-.45.39-.17,1.08-.49.23-.1,1.25-.61.32-.17.95-.5.35-.19,1.2-.68.65-.38.15-.09.49-.3.44-.28.48-.31.43-.28.46-.32.41-.28.45-.32.39-.29.43-.33.38-.29.42-.34.36-.29.41-.35.34-.29.4-.36.28-.25,0,0,.81-.77.2-.21.58-.6.23-.24.6-.67.12-.13q.34-.4.66-.81l.06-.07.15-.2.35-.46.21-.3.32-.45.2-.3.3-.46.18-.29.3-.5.12-.2,0-.06.24-.44.15-.28.25-.51.11-.22q.17-.37.33-.73l0-.11c.09-.21.17-.42.25-.63v0l.1-.28L147,120l.1-.32.13-.42.09-.33.11-.41.08-.34c0-.13.06-.27.09-.4l0-.07c0-.09,0-.18,0-.26s.05-.27.07-.41,0-.23,0-.34,0-.27.05-.4,0-.23,0-.34,0-.27,0-.4,0-.23,0-.35,0-.27,0-.4,0-.09,0-.13,0-.31,0-.47v-3.86C148,110.52,148,110.72,148,110.92Z"/><path class="cls-6" d="M132.36,88.46c-20.76-12-54.32-12-74.94,0s-20.52,31.42.24,43.41,54.32,12,74.95,0S153.12,100.45,132.36,88.46Z"/><path class="cls-2" d="M147.07,104.54l-22.57-13L81.21,106.87,64.45,126.08,89.61,140.7c15.36.93,31.27-2,43-8.82C145.39,124.44,150.21,114.15,147.07,104.54Z"/><path class="cls-7" d="M140.49,102.51a54.77,54.77,0,0,0-2.4-11.24,41.8,41.8,0,0,0-3.56-7.81,45.93,45.93,0,0,0-25.43-20.57l.32.11a55.86,55.86,0,0,0-8.55-2l.43.06a47.7,47.7,0,0,0-7.61-.42c.77,0-.24,0-.4,0l-.63,0-1.47.1c-.7.06-1.39.14-2.09.23a42.79,42.79,0,0,0-4.82.89,46.15,46.15,0,0,0-13.15,5.47l.34-.2A46.28,46.28,0,0,0,52.52,89.6l.15-.41A52.11,52.11,0,0,0,50,98.83l.1-.71a53.32,53.32,0,0,0-.72,7.73v-.48c0,.35,0,.69,0,1,0,0,0,.66,0,.28.11,5.32,3,10,6.85,13.61,8.16,7.63,20,10.95,30.86,12a77.53,77.53,0,0,0,21.49-.83,61.2,61.2,0,0,0,14.68-4.5c8.13-3.74,17-10.49,17.39-20.25.05-1.41-.08-2.84-.15-4.26C140.46,102.26,140.54,103.6,140.49,102.51Z"/><path class="cls-8" d="M140.49,102.51a54.77,54.77,0,0,0-2.4-11.24,41.8,41.8,0,0,0-3.56-7.81,45.93,45.93,0,0,0-25.43-20.57l.32.11a55.7,55.7,0,0,0-8.24-1.92,45.71,45.71,0,0,0-5.59-.41,45.59,45.59,0,0,1,6.81,3.57,46.57,46.57,0,0,1,15,15.62,41.81,41.81,0,0,1,3.56,7.81,54.77,54.77,0,0,1,2.4,11.24c.06,1.41.2,2.84.14,4.26-.35,9.76-9.27,16.51-17.39,20.25a61.21,61.21,0,0,1-14.68,4.5,77.48,77.48,0,0,1-20.66.91,69.54,69.54,0,0,0,16.32,3.52,77.54,77.54,0,0,0,21.49-.83,61.2,61.2,0,0,0,14.68-4.5c8.13-3.74,17-10.49,17.39-20.25C140.69,105.35,140.55,103.92,140.49,102.51Z"/><path class="cls-9" d="M100.86,61l.31,0,.12,0Z"/><path class="cls-10" d="M75.13,75.77c.17-2.7-1.65-3.91-4.07-2.71a9.36,9.36,0,0,0-4.69,7.06C66.2,82.81,68,84,70.44,82.82A9.36,9.36,0,0,0,75.13,75.77Z"/><path class="cls-8" d="M101.28,55.17s0,.09,0,.14,0,.08,0,.11,0,.09,0,.13l0,.11-.07.14L101,56l0,0-.15.18,0,0-.19.19-.14.11-.13.1-.16.11-.17.11-.3.16-.08,0-.29.12,0,0-.32.11-.23.07-.18,0-.25.05-.17,0-.51.07h-.16l-.3,0h-.88l-.21,0-.22,0-.2,0-.24,0-.19,0-.28-.07-.18,0-.09,0-.27-.09-.08,0-.24-.1L94,57l-.33-.17A2.25,2.25,0,0,1,92.29,55l0,8.43A2.25,2.25,0,0,0,93.6,65.3l.33.17.12.05.2.09h0l.08,0,.27.09.09,0,.06,0,.12,0,.28.07.07,0,.11,0,.24,0,.1,0h.11L96,66h1.08l.3,0h.16l.51-.07h0l.15,0,.25-.05.18,0,.23-.07h0l.27-.1,0,0,.29-.12.08,0,.3-.16.05,0,.12-.08.16-.11.13-.1.14-.11,0,0,.16-.16,0,0,.09-.1.06-.08,0,0,.1-.16,0,0,.07-.14,0-.08v0s0-.09,0-.13l0-.09v0s0-.09,0-.14,0-.06,0-.09v0l0-8.43S101.28,55.13,101.28,55.17Z"/><path class="cls-11" d="M100,53.18c1.76,1,1.77,2.67,0,3.68a7,7,0,0,1-6.36,0c-1.76-1-1.77-2.67,0-3.68A7,7,0,0,1,100,53.18Z"/><path class="cls-12" d="M101.26,55.31s0,.08,0,.11,0,.09,0,.13l0,.11-.07.14L101,56l0,0-.15.18,0,0-.19.19-.14.11-.13.1-.16.11-.17.11-.3.16-.08,0-.29.12,0,0-.32.11-.22.06V65.8l.2-.06h0l.27-.1,0,0,.29-.12.08,0,.3-.16.05,0,.12-.08.16-.11.13-.1.14-.11,0,0,.16-.16,0,0,.09-.1.06-.08,0,0,.1-.16,0,0,.07-.14,0-.08v0s0-.09,0-.13l0-.09v0s0-.09,0-.14,0-.06,0-.09v0l0-8.43s0,.09,0,.13S101.27,55.27,101.26,55.31Z"/><path class="cls-6" d="M109.13,52.68c0,.06,0,.12,0,.19s0,.11,0,.16,0,.12,0,.19l0,.16,0,.18,0,.16-.06.18-.06.16-.08.19-.07.16-.1.19-.08.15-.14.22-.09.13-.17.24-.08.1-.32.37-.09.09-.28.28-.13.12-.18.16-.17.14-.19.15-.18.14-.21.15-.2.13-.22.14-.29.17c-.27.16-.55.3-.83.44l-.23.11-.79.34-.1,0c-.29.11-.59.21-.89.3l-.64.18-.48.13-.68.15-.5.1-.21,0-.85.12-.25,0-1,.08h-.19l-.68,0h-.68l-.57,0-.63,0-.57,0-.62-.07-.55-.08L93,59.21l-.68-.14-.16,0-.93-.25-.26-.08-.75-.26L90,58.37l-.65-.28L89,57.95c-.31-.15-.61-.3-.9-.47-2.43-1.4-3.65-3.25-3.64-5.09V55c0,1.84,1.21,3.68,3.64,5.09.29.17.59.32.9.47l.32.14.56.24.1,0,.21.08.75.26.26.08.17.05.76.2.16,0,.37.08.31.05.65.11.26,0,.29,0,.62.07.29,0h.28l.63,0,.31,0h1.26l.34,0h.19l.84-.06.16,0,.25,0,.86-.12.21,0,.1,0,.4-.09.68-.15.49-.13.63-.18.14,0,.75-.26.1,0,.79-.34.23-.11c.29-.14.57-.28.83-.44l.15-.09.14-.09.22-.14.2-.13.21-.15.18-.14.19-.15L107,59l.18-.15.07-.06.06-.06.28-.28.09-.09L108,58v0l.06-.09.17-.24.09-.13.13-.22,0-.06,0-.09.1-.18.07-.16.08-.19,0-.08,0-.08.06-.18,0-.16,0-.18,0-.1V55.8c0-.06,0-.12,0-.18s0-.11,0-.16,0-.12,0-.19,0-.07,0-.11,0-.07,0-.11V52.46C109.14,52.53,109.13,52.6,109.13,52.68Z"/><path class="cls-12" d="M105.5,47.37c-4.83-2.79-12.65-2.79-17.45,0s-4.78,7.32.06,10.11,12.65,2.79,17.45,0S110.33,50.16,105.5,47.37Z"/><path class="cls-2" d="M109.12,52.86c0,.05,0,.11,0,.16s0,.12,0,.19l0,.16,0,.18,0,.16-.06.18-.06.16-.08.19-.07.16-.1.19-.08.15-.14.22-.09.13-.17.24-.08.1-.32.37-.09.09-.28.28-.13.12-.18.16-.17.14-.19.15-.18.14-.21.15-.2.13-.22.14-.29.17c-.27.16-.55.3-.83.44l-.23.11-.79.34-.1,0c-.29.11-.59.21-.89.3l-.64.18-.48.13-.68.15-.5.1-.21,0-.85.12-.25,0-.65.05v2.59l.48,0,.16,0,.25,0,.86-.12.21,0,.1,0,.4-.09.68-.15.49-.13.63-.18.14,0,.75-.26.1,0,.79-.34.23-.11c.29-.14.57-.28.83-.44l.15-.09.14-.09.22-.14.2-.13.21-.15.18-.14.19-.15L107,59l.18-.15.07-.06.06-.06.28-.28.09-.09L108,58v0l.06-.09.17-.24.09-.13.13-.22,0-.06,0-.09.1-.18.07-.16.08-.19,0-.08,0-.08.06-.18,0-.16,0-.18,0-.1V55.8c0-.06,0-.12,0-.18s0-.11,0-.16,0-.12,0-.19,0-.07,0-.11,0-.07,0-.11V52.46c0,.07,0,.14,0,.22S109.12,52.8,109.12,52.86Z"/><path class="cls-13" d="M105.5,47.37a13.32,13.32,0,0,0-1.66-.8L86.67,56.48a10.2,10.2,0,0,0,1.43,1,14.16,14.16,0,0,0,2.77,1.2L107.62,49A9.3,9.3,0,0,0,105.5,47.37Z"/><path class="cls-13" d="M98.28,45.33,84.56,53.26a4.84,4.84,0,0,0,.64,1.57L101,45.71A20.15,20.15,0,0,0,98.28,45.33Z"/></svg>