<svg id="Layer_1" data-name="Layer 1" xmlns="http://www.w3.org/2000/svg" viewBox="0 0 190 190"><defs><style>.cls-1{fill:#fff1cc;}.cls-2,.cls-4,.cls-5{fill:#210049;}.cls-3{fill:#defffb;}.cls-4{opacity:0.15;}.cls-5{opacity:0.3;}.cls-6{fill:#929077;}.cls-7{fill:#15875e;}.cls-8{fill:#44cca0;}.cls-9{fill:#92b645;}.cls-10{fill:#7feac3;}.cls-11{fill:#e3ecb0;}.cls-12{fill:#a8cf4f;}.cls-13{fill:#5d627a;}.cls-14{fill:#21aa79;}.cls-15{fill:#f8eecf;}.cls-16{fill:#33007c;}</style></defs><title>Medals</title><polygon class="cls-1" points="182.43 95 188.76 86.31 180.95 78.93 185.58 69.23 176.54 63.41 179.3 53.02 169.34 48.97 170.14 38.26 159.61 36.1 158.43 25.42 147.68 25.23 144.57 14.94 133.97 16.72 129.02 7.18 118.93 10.89 112.3 2.44 103.07 7.94 95 0.85 86.93 7.94 77.7 2.44 71.06 10.89 60.98 7.18 56.02 16.72 45.43 14.94 42.31 25.23 31.57 25.42 30.39 36.1 19.86 38.26 20.66 48.98 10.7 53.02 13.46 63.41 4.42 69.23 9.05 78.93 1.24 86.31 7.58 95 1.24 103.69 9.05 111.07 4.42 120.77 13.46 126.59 10.7 136.98 20.66 141.03 19.86 151.74 30.39 153.9 31.57 164.58 42.32 164.77 45.43 175.06 56.03 173.28 60.98 182.82 71.07 179.11 77.7 187.56 86.93 182.06 95 189.15 103.07 182.06 112.3 187.56 118.94 179.11 129.02 182.82 133.98 173.28 144.57 175.06 147.69 164.77 158.43 164.58 159.61 153.9 170.14 151.74 169.34 141.03 179.3 136.98 176.54 126.59 185.58 120.77 180.95 111.07 188.76 103.69 182.43 95"/><path class="cls-2" d="M95,190.2a1,1,0,0,1-.69-.26l-7.5-6.59-8.58,5.12a1,1,0,0,1-1.36-.25l-6.16-7.86-9.37,3.45a1,1,0,0,1-1.29-.5l-4.6-8.86-9.85,1.65a1,1,0,0,1-1.17-.73l-2.89-9.56-10-.18a1,1,0,0,1-1-.93l-1.1-9.93-9.78-2a1,1,0,0,1-.83-1.1l.74-10-9.25-3.76a1,1,0,0,1-.62-1.23l2.56-9.65-8.4-5.41a1,1,0,0,1-.38-1.33l4.3-9L.53,104.44a1,1,0,0,1-.13-1.37L6.28,95,.4,86.93a1,1,0,0,1,.13-1.37l7.25-6.87-4.3-9a1,1,0,0,1,.38-1.33l8.4-5.41L9.69,53.29a1,1,0,0,1,.62-1.24l9.25-3.76-.74-10a1,1,0,0,1,.83-1.1l9.78-2,1.1-9.93a1,1,0,0,1,1-.93l10-.18,2.89-9.56a1,1,0,0,1,1.17-.73l9.85,1.65,4.6-8.86a1,1,0,0,1,1.29-.5l9.37,3.44,6.16-7.86a1,1,0,0,1,1.36-.25l8.58,5.12L94.31.06a1,1,0,0,1,1.38,0l7.5,6.59,8.58-5.12a1,1,0,0,1,1.36.25l6.16,7.86,9.37-3.45a1,1,0,0,1,1.29.5l4.6,8.86,9.85-1.65a1,1,0,0,1,1.17.73l2.89,9.56,10,.18a1,1,0,0,1,1,.93l1.1,9.93,9.78,2a1,1,0,0,1,.83,1.1l-.74,10,9.25,3.76a1,1,0,0,1,.62,1.24l-2.56,9.65,8.4,5.41a1,1,0,0,1,.38,1.33l-4.3,9,7.25,6.87a1,1,0,0,1,.13,1.37L183.72,95l5.88,8.07a1,1,0,0,1-.13,1.37l-7.25,6.86,4.3,9a1,1,0,0,1-.38,1.33l-8.4,5.41,2.56,9.65a1,1,0,0,1-.62,1.24l-9.25,3.76.74,10a1,1,0,0,1-.83,1.1l-9.78,2-1.1,9.93a1,1,0,0,1-1,.93l-10,.18-2.89,9.56a1,1,0,0,1-1.17.73l-9.85-1.65-4.6,8.86a1,1,0,0,1-1.29.5l-9.37-3.44-6.16,7.86a1,1,0,0,1-1.36.25l-8.58-5.12-7.5,6.59A1,1,0,0,1,95,190.2Z"/><path class="cls-3" d="M95,12.82A82.18,82.18,0,1,0,177.18,95,82.28,82.28,0,0,0,95,12.82Z"/><path class="cls-4" d="M138,161a1.08,1.08,0,0,0,0-1.53L31.55,53A1.08,1.08,0,0,0,30,53L30,52.94c-18.56,31.57-15.27,71.81,10.51,97.6s66,29.07,97.6,10.51Z"/><path class="cls-5" d="M99.64,139a191.07,191.07,0,0,1-25.48,0A212,212,0,0,1,99.64,139ZM78.4,135.39a41.13,41.13,0,0,0,11.8,0A45.66,45.66,0,0,0,78.4,135.39Zm-20,9c12.33.56,23.53.57,35.87,0C82.07,143.91,70.8,143.92,58.42,144.43Zm39-.16a13.66,13.66,0,0,0,6.77,0A15.13,15.13,0,0,0,97.44,144.27Zm-30.37,6.34c12.55.56,23.95.57,36.5,0C91.14,150.09,79.67,150.1,67.07,150.61Zm42.32-.32a268.53,268.53,0,0,0,30.21,0A298,298,0,0,0,109.4,150.29Zm25.17-5.23a27.28,27.28,0,0,0,9.6,0A30.26,30.26,0,0,0,134.57,145.06Zm5.19-13a110.27,110.27,0,0,0,19.35,0A122.4,122.4,0,0,0,139.76,132.07Zm-.31,7a31,31,0,0,0,10.23,0A34.34,34.34,0,0,0,139.45,139ZM43,143.48a8.14,8.14,0,0,0,5.19,0A9,9,0,0,0,43,143.48Zm10.38,6.66a22.23,22.23,0,0,0,8.65,0A24.62,24.62,0,0,0,53.38,150.13ZM29.94,129.85a24.68,24.68,0,0,0,9.13,0A27.37,27.37,0,0,0,29.94,129.85ZM77.77,156c14.44.56,27.56.57,42,0C105.46,155.48,92.27,155.49,77.77,156ZM96,161.07a80.41,80.41,0,0,0,16.52,0A89.31,89.31,0,0,0,96,161.07Zm-14.48.48a19.13,19.13,0,0,0,8,0A21.21,21.21,0,0,0,81.55,161.54Zm7.55,4.91a80.46,80.46,0,0,0,16.52,0A89.23,89.23,0,0,0,89.1,166.46ZM60,157.27a40,40,0,0,0,11.64,0A44.44,44.44,0,0,0,60,157.27Zm64.35-.16a23,23,0,0,0,8.81,0A25.52,25.52,0,0,0,124.34,157.11Zm-95.66-36a22.23,22.23,0,0,0,8.65,0A24.63,24.63,0,0,0,28.68,121.13Zm-3.3-7.45a38,38,0,0,0,11.33,0A42.07,42.07,0,0,0,25.38,113.68Zm-1.1-4.12a38,38,0,0,0,11.33,0A42.07,42.07,0,0,0,24.28,109.56Zm-2.2-4.75a48,48,0,0,0,12.74,0A53.19,53.19,0,0,0,22.07,104.81Zm.16-6.5a49.13,49.13,0,0,0,12.9,0A54.52,54.52,0,0,0,22.23,98.31ZM20.5,92.13a45.63,45.63,0,0,0,12.43,0A50.62,50.62,0,0,0,20.5,92.13Zm1.89-3.49a27.29,27.29,0,0,0,9.6,0A30.27,30.27,0,0,0,22.39,88.64Zm1.89-8.24a27.29,27.29,0,0,0,9.6,0A30.25,30.25,0,0,0,24.28,80.4ZM24,75a49.13,49.13,0,0,0,12.9,0A54.51,54.51,0,0,0,24,75Zm6-5.23a193.55,193.55,0,0,0,25.65,0A215,215,0,0,0,29.94,69.78Zm28.48-1.43a18.41,18.41,0,0,0,7.87,0A20.39,20.39,0,0,0,58.42,68.35ZM37.34,62a200.67,200.67,0,0,0,26.12,0A222.93,222.93,0,0,0,37.34,62Zm5.82-7.13a113.81,113.81,0,0,0,19.67,0A126.49,126.49,0,0,0,43.16,54.88ZM48.35,50a68.66,68.66,0,0,0,15.26,0A76.24,76.24,0,0,0,48.35,50Zm3.46-7.13a42.25,42.25,0,0,0,12,0A46.85,46.85,0,0,0,51.81,42.84ZM31.36,56a17,17,0,0,0,7.55,0A18.82,18.82,0,0,0,31.36,56ZM133.47,71.52c11.74.56,22.4.57,34.14,0C156,71,145.25,71,133.47,71.52Zm5.66,5.39a121.31,121.31,0,0,0,20.3,0A134.67,134.67,0,0,0,139.13,76.91Zm24.7-.48a9.12,9.12,0,0,0,5.51,0A10.09,10.09,0,0,0,163.84,76.44Zm-15.1,7a127,127,0,0,0,20.77,0A141,141,0,0,0,148.73,83.41Zm4.72,6.34a45.63,45.63,0,0,0,12.43,0A50.62,50.62,0,0,0,153.45,89.75Zm.16,6a74.42,74.42,0,0,0,15.89,0A82.59,82.59,0,0,0,153.61,95.77Zm-.63,5.86a80.37,80.37,0,0,0,16.52,0A89.31,89.31,0,0,0,153,101.64Zm-3.78,4.44a17,17,0,0,0,7.55,0A18.81,18.81,0,0,0,149.2,106.07ZM132.05,66a140.84,140.84,0,0,0,21.87,0A156.31,156.31,0,0,0,132.05,66Zm26.59.16a18.4,18.4,0,0,0,7.87,0A20.39,20.39,0,0,0,158.64,66.13Zm-26-6.81a32.88,32.88,0,0,0,10.54,0A36.47,36.47,0,0,0,132.68,59.32Zm15.42.79a67.26,67.26,0,0,0,15.1,0A74.66,74.66,0,0,0,148.1,60.11ZM133.63,53a161.81,161.81,0,0,0,23.44,0A179.48,179.48,0,0,0,133.63,53ZM133,46a96.42,96.42,0,0,0,18.09,0A107.06,107.06,0,0,0,133,46Zm.16-7.45a64.45,64.45,0,0,0,14.79,0A71.61,71.61,0,0,0,133.15,38.56Zm-6.92-5.71a29.09,29.09,0,0,0,9.91,0A32.26,32.26,0,0,0,126.23,32.85Zm-74.11,3.8a59.17,59.17,0,0,0,14.16,0A65.6,65.6,0,0,0,52.12,36.66Zm9.76-8.24a230.7,230.7,0,0,0,28,0A256.13,256.13,0,0,0,61.88,28.41Zm20-4.91c13,.56,24.87.57,37.92,0C106.86,23,94.95,23,81.86,23.5Zm31,4.12a91.52,91.52,0,0,0,17.62,0A101.52,101.52,0,0,0,112.86,27.62ZM39.54,45.85a18.41,18.41,0,0,0,7.87,0A20.39,20.39,0,0,0,39.54,45.85Z"/><polygon class="cls-6" points="78.71 117.56 88.92 111.11 77.03 104.16 66.58 110.55 78.71 117.56"/><polygon class="cls-7" points="118.32 137.19 118.31 139.85 161.75 114.61 161.76 111.94 118.32 137.19"/><polygon class="cls-8" points="118.32 137.19 118.31 139.85 28.24 87.84 28.25 85.18 118.32 137.19"/><polygon class="cls-9" points="161.76 111.94 118.32 137.19 28.25 85.18 71.69 59.94 161.76 111.94"/><polygon class="cls-10" points="28.25 85.18 118.32 137.19 161.76 111.94 71.69 59.94 28.25 85.18"/><path class="cls-11" d="M149.15,110l-74-42.75a7.44,7.44,0,0,1-6.75,0l-27.51,16c1.87,1.08,1.88,2.83,0,3.91l74,42.75a7.44,7.44,0,0,1,6.75,0l27.51-16C147.3,112.82,147.29,111.07,149.15,110Zm-67.9-3.43c-6.39-3.69-5.42-10.26,2.18-14.68s18.94-5,25.33-1.31,5.42,10.26-2.18,14.68S87.64,110.25,81.25,106.56Zm18.69,13.2,5.7-3.31-1.32-.76,1-.58,2.46,1.42-6.71,3.9Zm5.6,3.26c-1.85-1.07-1.67-2.36.51-3.63a6.07,6.07,0,0,1,6.26-.31c1.84,1.06,1.66,2.36-.52,3.62A6.07,6.07,0,0,1,105.53,123Zm12.91,3.54a6.07,6.07,0,0,1-6.25.31c-1.85-1.07-1.67-2.36.51-3.62a6.07,6.07,0,0,1,6.26-.31C120.8,124,120.61,125.3,118.44,126.56Z"/><path class="cls-11" d="M118.07,123.46c-1.14-.66-2.49-.53-4.2.46s-1.92,1.78-.78,2.43,2.49.52,4.19-.47S119.19,124.11,118.07,123.46Z"/><path class="cls-11" d="M111.4,119.61c-1.14-.66-2.49-.53-4.2.46s-1.92,1.78-.78,2.43,2.49.52,4.19-.47S112.53,120.27,111.4,119.61Z"/><path class="cls-12" d="M95.74,95.95c-.78.45-.67,1-.19,1.68L98.34,96A3,3,0,0,0,95.74,95.95Z"/><path class="cls-12" d="M91.39,101.87a3.42,3.42,0,0,0,2.91,0c.83-.49.67-1.09.15-1.79Z"/><path class="cls-12" d="M108.76,90.57c-6.39-3.69-17.73-3.1-25.33,1.31s-8.57,11-2.18,14.68,17.73,3.1,25.33-1.31S115.15,94.26,108.76,90.57Zm-7.17,8.59a5.94,5.94,0,0,0-1.71-2.22L96.6,98.85c1.27,1.37,2.6,2.92.15,4.33-2,1.15-4.81,1-7.34-.15l-2.5,1.46-1.57-.91,2.49-1.45a5.19,5.19,0,0,1-2.52-3.7L88,97.91A4.43,4.43,0,0,0,89.8,101l3.55-2.06c-1.26-1.34-2.53-2.84-.17-4.21,1.9-1.1,4.63-1,7.13.17l2.35-1.36,1.57.91-2.33,1.35a6.18,6.18,0,0,1,2.4,2.83Z"/><path class="cls-13" d="M101.91,95.76l2.33-1.35-1.57-.91-2.35,1.36c-2.5-1.16-5.23-1.27-7.13-.17-2.36,1.37-1.09,2.87.17,4.21L89.8,101A4.43,4.43,0,0,1,88,97.91l-2.72.53a5.19,5.19,0,0,0,2.52,3.7l-2.49,1.45,1.57.91L89.4,103c2.54,1.16,5.37,1.29,7.34.15,2.45-1.4,1.12-3-.15-4.33l3.29-1.91a5.94,5.94,0,0,1,1.71,2.22l2.72-.57A6.18,6.18,0,0,0,101.91,95.76Zm-7.61,6.12a3.42,3.42,0,0,1-2.91,0l3.06-1.78C95,100.79,95.13,101.4,94.3,101.88Zm1.26-4.25c-.49-.65-.6-1.23.19-1.68a3,3,0,0,1,2.6.06Z"/><polygon class="cls-13" points="104.31 115.69 105.63 116.45 99.93 119.76 101.07 120.42 107.78 116.52 105.32 115.1 104.31 115.69"/><path class="cls-13" d="M112.29,119.1a6.07,6.07,0,0,0-6.26.31c-2.17,1.26-2.36,2.56-.51,3.63a6.07,6.07,0,0,0,6.25-.31C114,121.45,114.13,120.16,112.29,119.1ZM110.61,122c-1.7,1-3.06,1.12-4.19.47s-.91-1.45.78-2.43,3.06-1.12,4.2-.46S112.31,121.05,110.61,122Z"/><path class="cls-13" d="M119,122.94a6.07,6.07,0,0,0-6.26.31c-2.17,1.26-2.36,2.56-.51,3.62a6.07,6.07,0,0,0,6.25-.31C120.61,125.3,120.8,124,119,122.94Zm-1.69,2.95c-1.7,1-3.06,1.12-4.19.47s-.91-1.45.78-2.43,3.06-1.12,4.2-.46S119,124.9,117.27,125.89Z"/><polygon class="cls-7" points="118.32 133.93 118.31 136.59 161.75 111.34 161.76 108.68 118.32 133.93"/><polygon class="cls-8" points="118.32 133.93 118.31 136.59 28.24 84.58 28.25 81.92 118.32 133.93"/><polygon class="cls-9" points="161.76 108.68 118.32 133.93 28.25 81.92 71.69 56.68 161.76 108.68"/><polygon class="cls-10" points="28.25 81.92 118.32 133.93 161.76 108.68 71.69 56.68 28.25 81.92"/><path class="cls-11" d="M149.15,106.73,75.1,64a7.44,7.44,0,0,1-6.75,0L40.84,80c1.87,1.08,1.88,2.83,0,3.91l74,42.75a7.44,7.44,0,0,1,6.75,0l27.51-16C147.3,109.56,147.29,107.81,149.15,106.73Zm-67.9-3.43C74.85,99.61,75.83,93,83.43,88.62s18.94-5,25.33-1.31,5.42,10.26-2.18,14.68S87.64,107,81.25,103.3Zm18.69,13.2,5.7-3.31-1.32-.76,1-.58,2.46,1.42-6.71,3.9Zm5.6,3.26c-1.85-1.07-1.67-2.36.51-3.63a6.07,6.07,0,0,1,6.26-.31c1.84,1.06,1.66,2.36-.52,3.62A6.07,6.07,0,0,1,105.53,119.76Zm12.91,3.54a6.07,6.07,0,0,1-6.25.31c-1.85-1.07-1.67-2.36.51-3.62a6.07,6.07,0,0,1,6.26-.31C120.8,120.74,120.61,122,118.44,123.3Z"/><path class="cls-11" d="M118.07,120.2c-1.14-.66-2.49-.53-4.2.46s-1.92,1.78-.78,2.43,2.49.52,4.19-.47S119.19,120.85,118.07,120.2Z"/><path class="cls-11" d="M111.4,116.35c-1.14-.66-2.49-.53-4.2.46s-1.92,1.78-.78,2.43,2.49.52,4.19-.47S112.53,117,111.4,116.35Z"/><path class="cls-12" d="M95.74,92.68c-.78.45-.67,1-.19,1.68l2.79-1.62A3,3,0,0,0,95.74,92.68Z"/><path class="cls-12" d="M91.39,98.61a3.42,3.42,0,0,0,2.91,0c.83-.49.67-1.09.15-1.79Z"/><path class="cls-12" d="M108.76,87.31c-6.39-3.69-17.73-3.1-25.33,1.31s-8.57,11-2.18,14.68S99,106.4,106.58,102,115.15,91,108.76,87.31Zm-7.17,8.59a5.94,5.94,0,0,0-1.71-2.22L96.6,95.58c1.27,1.37,2.6,2.92.15,4.33-2,1.15-4.81,1-7.34-.15l-2.5,1.46-1.57-.91,2.49-1.45a5.19,5.19,0,0,1-2.52-3.7L88,94.64a4.43,4.43,0,0,0,1.78,3.07l3.55-2.06c-1.26-1.34-2.53-2.84-.17-4.21,1.9-1.1,4.63-1,7.13.17l2.35-1.36,1.57.91-2.33,1.35a6.18,6.18,0,0,1,2.4,2.83Z"/><path class="cls-13" d="M101.91,92.5l2.33-1.35-1.57-.91-2.35,1.36c-2.5-1.16-5.23-1.27-7.13-.17-2.36,1.37-1.09,2.87.17,4.21L89.8,97.71A4.43,4.43,0,0,1,88,94.64l-2.72.53a5.19,5.19,0,0,0,2.52,3.7l-2.49,1.45,1.57.91,2.5-1.46c2.54,1.16,5.37,1.29,7.34.15,2.45-1.4,1.12-3-.15-4.33l3.29-1.91a5.94,5.94,0,0,1,1.71,2.22l2.72-.57A6.18,6.18,0,0,0,101.91,92.5ZM94.3,98.62a3.42,3.42,0,0,1-2.91,0l3.06-1.78C95,97.52,95.13,98.13,94.3,98.62Zm1.26-4.25c-.49-.65-.6-1.23.19-1.68a3,3,0,0,1,2.6.06Z"/><polygon class="cls-13" points="104.31 112.42 105.63 113.19 99.93 116.5 101.07 117.16 107.78 113.26 105.32 111.84 104.31 112.42"/><path class="cls-13" d="M112.29,115.83a6.07,6.07,0,0,0-6.26.31c-2.17,1.26-2.36,2.56-.51,3.63a6.07,6.07,0,0,0,6.25-.31C114,118.19,114.13,116.9,112.29,115.83Zm-1.69,2.95c-1.7,1-3.06,1.12-4.19.47s-.91-1.45.78-2.43,3.06-1.12,4.2-.46S112.31,117.79,110.61,118.78Z"/><path class="cls-13" d="M119,119.68a6.07,6.07,0,0,0-6.26.31c-2.17,1.26-2.36,2.56-.51,3.62a6.07,6.07,0,0,0,6.25-.31C120.61,122,120.8,120.74,119,119.68Zm-1.69,2.95c-1.7,1-3.06,1.12-4.19.47s-.91-1.45.78-2.43,3.06-1.12,4.2-.46S119,121.64,117.27,122.63Z"/><polygon class="cls-7" points="118.32 130.66 118.31 133.32 161.75 108.08 161.76 105.42 118.32 130.66"/><polygon class="cls-8" points="118.32 130.66 118.31 133.32 28.24 81.32 28.25 78.66 118.32 130.66"/><polygon class="cls-9" points="161.76 105.42 118.32 130.66 28.25 78.66 71.69 53.41 161.76 105.42"/><polygon class="cls-10" points="28.25 78.66 118.32 130.66 161.76 105.42 71.69 53.41 28.25 78.66"/><path class="cls-11" d="M149.15,103.46l-74-42.75a7.44,7.44,0,0,1-6.75,0l-27.51,16c1.87,1.08,1.88,2.83,0,3.91l74,42.75a7.44,7.44,0,0,1,6.75,0l27.51-16C147.3,106.29,147.29,104.54,149.15,103.46ZM81.25,100c-6.39-3.69-5.42-10.26,2.18-14.68s18.94-5,25.33-1.31,5.42,10.26-2.18,14.68S87.64,103.72,81.25,100Zm18.69,13.2,5.7-3.31-1.32-.76,1-.58,2.46,1.42-6.71,3.9Zm5.6,3.26c-1.85-1.07-1.67-2.36.51-3.63a6.07,6.07,0,0,1,6.26-.31c1.84,1.06,1.66,2.36-.52,3.62A6.07,6.07,0,0,1,105.53,116.5ZM118.44,120a6.07,6.07,0,0,1-6.25.31c-1.85-1.07-1.67-2.36.51-3.62a6.07,6.07,0,0,1,6.26-.31C120.8,117.48,120.61,118.77,118.44,120Z"/><path class="cls-11" d="M118.07,116.94c-1.14-.66-2.49-.53-4.2.46s-1.92,1.78-.78,2.43,2.49.52,4.19-.47S119.19,117.59,118.07,116.94Z"/><path class="cls-11" d="M111.4,113.09c-1.14-.66-2.49-.53-4.2.46s-1.92,1.78-.78,2.43,2.49.52,4.19-.47S112.53,113.74,111.4,113.09Z"/><path class="cls-12" d="M95.74,89.42c-.78.45-.67,1-.19,1.68l2.79-1.62A3,3,0,0,0,95.74,89.42Z"/><path class="cls-12" d="M91.39,95.35a3.42,3.42,0,0,0,2.91,0c.83-.49.67-1.09.15-1.79Z"/><path class="cls-12" d="M108.76,84c-6.39-3.69-17.73-3.1-25.33,1.31s-8.57,11-2.18,14.68,17.73,3.1,25.33-1.31S115.15,87.73,108.76,84Zm-7.17,8.59a5.94,5.94,0,0,0-1.71-2.22L96.6,92.32c1.27,1.37,2.6,2.92.15,4.33-2,1.15-4.81,1-7.34-.15L86.9,98,85.32,97l2.49-1.45a5.19,5.19,0,0,1-2.52-3.7L88,91.38a4.43,4.43,0,0,0,1.78,3.07l3.55-2.06c-1.26-1.34-2.53-2.84-.17-4.21,1.9-1.1,4.63-1,7.13.17L102.66,87l1.57.91-2.33,1.35a6.18,6.18,0,0,1,2.4,2.83Z"/><path class="cls-13" d="M101.91,89.23l2.33-1.35L102.66,87l-2.35,1.36c-2.5-1.16-5.23-1.27-7.13-.17-2.36,1.37-1.09,2.87.17,4.21L89.8,94.45A4.43,4.43,0,0,1,88,91.38l-2.72.53a5.19,5.19,0,0,0,2.52,3.7L85.32,97,86.9,98l2.5-1.46c2.54,1.16,5.37,1.29,7.34.15,2.45-1.4,1.12-3-.15-4.33l3.29-1.91a5.94,5.94,0,0,1,1.71,2.22l2.72-.57A6.18,6.18,0,0,0,101.91,89.23ZM94.3,95.36a3.42,3.42,0,0,1-2.91,0l3.06-1.78C95,94.26,95.13,94.87,94.3,95.36Zm1.26-4.25c-.49-.65-.6-1.23.19-1.68a3,3,0,0,1,2.6.06Z"/><polygon class="cls-13" points="104.31 109.16 105.63 109.92 99.93 113.24 101.07 113.89 107.78 110 105.32 108.58 104.31 109.16"/><path class="cls-13" d="M112.29,112.57a6.07,6.07,0,0,0-6.26.31c-2.17,1.26-2.36,2.56-.51,3.63a6.07,6.07,0,0,0,6.25-.31C114,114.93,114.13,113.63,112.29,112.57Zm-1.69,2.95c-1.7,1-3.06,1.12-4.19.47s-.91-1.45.78-2.43,3.06-1.12,4.2-.46S112.31,114.52,110.61,115.52Z"/><path class="cls-13" d="M119,116.42a6.07,6.07,0,0,0-6.26.31c-2.17,1.26-2.36,2.56-.51,3.62a6.07,6.07,0,0,0,6.25-.31C120.61,118.77,120.8,117.48,119,116.42Zm-1.69,2.95c-1.7,1-3.06,1.12-4.19.47s-.91-1.45.78-2.43,3.06-1.12,4.2-.46S119,118.37,117.27,119.36Z"/><polygon class="cls-7" points="118.32 127.4 118.31 130.06 161.75 104.82 161.76 102.16 118.32 127.4"/><polygon class="cls-8" points="118.32 127.4 118.31 130.06 28.24 78.06 28.25 75.39 118.32 127.4"/><polygon class="cls-9" points="161.76 102.16 118.32 127.4 28.25 75.39 71.69 50.15 161.76 102.16"/><polygon class="cls-14" points="28.25 75.39 118.32 127.4 161.76 102.16 71.69 50.15 28.25 75.39"/><path class="cls-15" d="M149.15,100.2l-74-42.75a7.44,7.44,0,0,1-6.75,0l-27.51,16c1.87,1.08,1.88,2.83,0,3.91l74,42.75a7.44,7.44,0,0,1,6.75,0l27.51-16C147.3,103,147.29,101.28,149.15,100.2Zm-67.9-3.43c-6.39-3.69-5.42-10.26,2.18-14.68s18.94-5,25.33-1.31,5.42,10.26-2.18,14.68S87.64,100.46,81.25,96.77ZM99.93,110l5.7-3.31-1.32-.76,1-.58,2.46,1.42-6.71,3.9Zm5.6,3.26c-1.85-1.07-1.67-2.36.51-3.63a6.07,6.07,0,0,1,6.26-.31c1.84,1.06,1.66,2.36-.52,3.62A6.07,6.07,0,0,1,105.53,113.24Zm12.91,3.54a6.07,6.07,0,0,1-6.25.31c-1.85-1.07-1.67-2.36.51-3.62a6.07,6.07,0,0,1,6.26-.31C120.8,114.22,120.61,115.51,118.44,116.77Z"/><path class="cls-15" d="M118.07,113.67c-1.14-.66-2.49-.53-4.2.46s-1.92,1.78-.78,2.43,2.49.52,4.19-.47S119.19,114.32,118.07,113.67Z"/><path class="cls-15" d="M111.4,109.83c-1.14-.66-2.49-.53-4.2.46s-1.92,1.78-.78,2.43,2.49.52,4.19-.47S112.53,110.48,111.4,109.83Z"/><path class="cls-12" d="M95.74,86.16c-.78.45-.67,1-.19,1.68l2.79-1.62A3,3,0,0,0,95.74,86.16Z"/><path class="cls-12" d="M91.39,92.08a3.42,3.42,0,0,0,2.91,0c.83-.49.67-1.09.15-1.79Z"/><path class="cls-8" d="M108.76,80.78c-6.39-3.69-17.73-3.1-25.33,1.31s-8.57,11-2.18,14.68,17.73,3.1,25.33-1.31S115.15,84.47,108.76,80.78Zm-7.17,8.59a5.94,5.94,0,0,0-1.71-2.22L96.6,89.06c1.27,1.37,2.6,2.92.15,4.33-2,1.15-4.81,1-7.34-.14l-2.5,1.46-1.57-.91,2.49-1.45a5.19,5.19,0,0,1-2.52-3.7L88,88.12a4.43,4.43,0,0,0,1.78,3.07l3.55-2.06c-1.26-1.34-2.53-2.84-.17-4.21,1.9-1.1,4.63-1,7.13.17l2.35-1.36,1.57.91L101.91,86a6.18,6.18,0,0,1,2.4,2.83Z"/><path class="cls-13" d="M101.91,86l2.33-1.35-1.57-.91-2.35,1.36c-2.5-1.16-5.23-1.27-7.13-.17-2.36,1.37-1.09,2.87.17,4.21L89.8,91.18A4.43,4.43,0,0,1,88,88.12l-2.72.53a5.19,5.19,0,0,0,2.52,3.7l-2.49,1.45,1.57.91,2.5-1.46c2.54,1.16,5.37,1.29,7.34.14,2.45-1.4,1.12-3-.15-4.33l3.29-1.91a5.94,5.94,0,0,1,1.71,2.22l2.72-.57A6.18,6.18,0,0,0,101.91,86ZM94.3,92.09a3.42,3.42,0,0,1-2.91,0l3.06-1.78C95,91,95.13,91.61,94.3,92.09Zm1.26-4.25c-.49-.65-.6-1.23.19-1.68a3,3,0,0,1,2.6.06Z"/><polygon class="cls-8" points="104.31 105.9 105.63 106.66 99.93 109.97 101.07 110.63 107.78 106.73 105.32 105.31 104.31 105.9"/><path class="cls-8" d="M112.29,109.31a6.07,6.07,0,0,0-6.26.31c-2.17,1.26-2.36,2.56-.51,3.63a6.07,6.07,0,0,0,6.25-.31C114,111.66,114.13,110.37,112.29,109.31Zm-1.69,2.95c-1.7,1-3.06,1.12-4.19.47s-.91-1.45.78-2.43,3.06-1.12,4.2-.46S112.31,111.26,110.61,112.25Z"/><path class="cls-8" d="M119,113.15a6.07,6.07,0,0,0-6.26.31c-2.17,1.26-2.36,2.56-.51,3.62a6.07,6.07,0,0,0,6.25-.31C120.61,115.51,120.8,114.22,119,113.15Zm-1.69,2.95c-1.7,1-3.06,1.12-4.19.47s-.91-1.45.78-2.43,3.06-1.12,4.2-.46S119,115.11,117.27,116.1Z"/><polygon class="cls-2" points="110.93 72.58 66.39 98.12 78.71 105.11 123 79.61 110.93 72.58"/><polygon class="cls-16" points="78.71 105.11 78.71 117.56 66.58 110.55 66.39 98.12 78.71 105.11"/></svg>